<?xml version="1.0" encoding="UTF-8" standalone="no"?>
<!DOCTYPE svg PUBLIC "-//W3C//DTD SVG 1.1//EN"
 "http://www.w3.org/Graphics/SVG/1.1/DTD/svg11.dtd">
<!-- Generated by graphviz version 2.44.1 (20220725.1945)
 -->
<!-- Title: include/minpass_crypto/aes_gcm_256.h Pages: 1 -->
<svg width="136pt" height="148pt"
 viewBox="0.00 0.00 136.00 148.00" xmlns="http://www.w3.org/2000/svg" xmlns:xlink="http://www.w3.org/1999/xlink">
<g id="graph0" class="graph" transform="scale(1 1) rotate(0) translate(4 144)">
<title>include/minpass_crypto/aes_gcm_256.h</title>
<!-- Node1 -->
<g id="node1" class="node">
<title>Node1</title>
<g id="a_node1"><a xlink:title=" ">
<polygon fill="#999999" stroke="#666666" points="123.5,-140 4.5,-140 4.5,-110 123.5,-110 123.5,-140"/>
<text text-anchor="start" x="12.5" y="-128" font-family="Helvetica,sans-Serif" font-size="10.00">include/minpass_crypto</text>
<text text-anchor="middle" x="64" y="-117" font-family="Helvetica,sans-Serif" font-size="10.00">/aes_gcm_256.h</text>
</a>
</g>
</g>
<!-- Node2 -->
<g id="node2" class="node">
<title>Node2</title>
<g id="a_node2"><a xlink:href="minpass__crypto_8h.html" target="_top" xlink:title=" ">
<polygon fill="white" stroke="#666666" points="128,-74 0,-74 0,-55 128,-55 128,-74"/>
<text text-anchor="middle" x="64" y="-62" font-family="Helvetica,sans-Serif" font-size="10.00">include/minpass_crypto.h</text>
</a>
</g>
</g>
<!-- Node1&#45;&gt;Node2 -->
<g id="edge1" class="edge">
<title>Node1&#45;&gt;Node2</title>
<path fill="none" stroke="#63b8ff" d="M64,-99.75C64,-90.72 64,-81.03 64,-74.27"/>
<polygon fill="#63b8ff" stroke="#63b8ff" points="60.5,-99.84 64,-109.84 67.5,-99.84 60.5,-99.84"/>
</g>
<!-- Node3 -->
<g id="node3" class="node">
<title>Node3</title>
<g id="a_node3"><a xlink:href="minpass__crypto_8cc.html" target="_top" xlink:title=" ">
<polygon fill="white" stroke="#666666" points="122,-19 6,-19 6,0 122,0 122,-19"/>
<text text-anchor="middle" x="64" y="-7" font-family="Helvetica,sans-Serif" font-size="10.00">src/minpass_crypto.cc</text>
</a>
</g>
</g>
<!-- Node2&#45;&gt;Node3 -->
<g id="edge2" class="edge">
<title>Node2&#45;&gt;Node3</title>
<path fill="none" stroke="#63b8ff" d="M64,-44.66C64,-35.93 64,-25.99 64,-19.09"/>
<polygon fill="#63b8ff" stroke="#63b8ff" points="60.5,-44.75 64,-54.75 67.5,-44.75 60.5,-44.75"/>
</g>
</g>
</svg>
