<?xml version="1.0" encoding="UTF-8" standalone="no"?>
<!DOCTYPE svg PUBLIC "-//W3C//DTD SVG 1.1//EN"
 "http://www.w3.org/Graphics/SVG/1.1/DTD/svg11.dtd">
<!-- Generated by graphviz version 2.44.1 (20220725.1945)
 -->
<!-- Title: minpass::SQLite3Client::SetPasswordData Pages: 1 -->
<svg width="336pt" height="134pt"
 viewBox="0.00 0.00 336.00 134.00" xmlns="http://www.w3.org/2000/svg" xmlns:xlink="http://www.w3.org/1999/xlink">
<g id="graph0" class="graph" transform="scale(1 1) rotate(0) translate(4 130)">
<title>minpass::SQLite3Client::SetPasswordData</title>
<!-- Node1 -->
<g id="node1" class="node">
<title>Node1</title>
<g id="a_node1"><a xlink:title=" ">
<polygon fill="#999999" stroke="#666666" points="120,-78 0,-78 0,-48 120,-48 120,-78"/>
<text text-anchor="start" x="8" y="-66" font-family="Helvetica,sans-Serif" font-size="10.00">minpass::SQLite3Client</text>
<text text-anchor="middle" x="60" y="-55" font-family="Helvetica,sans-Serif" font-size="10.00">::SetPasswordData</text>
</a>
</g>
</g>
<!-- Node2 -->
<g id="node2" class="node">
<title>Node2</title>
<g id="a_node2"><a xlink:href="classminpass_1_1sqlite3__client_1_1_helpers.html#a788563b3b4b8c9ce2e591b6b2cced0e0" target="_top" xlink:title=" ">
<polygon fill="white" stroke="#666666" points="328,-126 156,-126 156,-96 328,-96 328,-126"/>
<text text-anchor="start" x="164" y="-114" font-family="Helvetica,sans-Serif" font-size="10.00">minpass::sqlite3_client</text>
<text text-anchor="middle" x="242" y="-103" font-family="Helvetica,sans-Serif" font-size="10.00">::Helpers::CommonExceptionCatch</text>
</a>
</g>
</g>
<!-- Node1&#45;&gt;Node2 -->
<g id="edge1" class="edge">
<title>Node1&#45;&gt;Node2</title>
<path fill="none" stroke="#63b8ff" d="M117.46,-78.06C135.72,-82.93 156.13,-88.37 175.02,-93.41"/>
<polygon fill="#63b8ff" stroke="#63b8ff" points="174.18,-96.8 184.74,-96 175.98,-90.04 174.18,-96.8"/>
</g>
<!-- Node3 -->
<g id="node3" class="node">
<title>Node3</title>
<g id="a_node3"><a xlink:href="classminpass_1_1sqlite3__client_1_1_helpers.html#ad83030cfb1c8290dd30fc38d9ed3936f" target="_top" xlink:title=" ">
<polygon fill="white" stroke="#666666" points="306.5,-78 177.5,-78 177.5,-48 306.5,-48 306.5,-78"/>
<text text-anchor="start" x="185.5" y="-66" font-family="Helvetica,sans-Serif" font-size="10.00">minpass::sqlite3_client</text>
<text text-anchor="middle" x="242" y="-55" font-family="Helvetica,sans-Serif" font-size="10.00">::Helpers::EmptyCallback</text>
</a>
</g>
</g>
<!-- Node1&#45;&gt;Node3 -->
<g id="edge2" class="edge">
<title>Node1&#45;&gt;Node3</title>
<path fill="none" stroke="#63b8ff" d="M120.44,-63C135.39,-63 151.62,-63 167.18,-63"/>
<polygon fill="#63b8ff" stroke="#63b8ff" points="167.29,-66.5 177.29,-63 167.29,-59.5 167.29,-66.5"/>
</g>
<!-- Node4 -->
<g id="node4" class="node">
<title>Node4</title>
<g id="a_node4"><a xlink:href="classminpass_1_1sqlite3__client_1_1_helpers.html#af58e548a010c52c49a5f212934abf55b" target="_top" xlink:title=" ">
<polygon fill="white" stroke="#666666" points="309,-30 175,-30 175,0 309,0 309,-30"/>
<text text-anchor="start" x="183" y="-18" font-family="Helvetica,sans-Serif" font-size="10.00">minpass::sqlite3_client</text>
<text text-anchor="middle" x="242" y="-7" font-family="Helvetica,sans-Serif" font-size="10.00">::Helpers::ValidateRequest</text>
</a>
</g>
</g>
<!-- Node1&#45;&gt;Node4 -->
<g id="edge3" class="edge">
<title>Node1&#45;&gt;Node4</title>
<path fill="none" stroke="#63b8ff" d="M117.46,-47.94C135.72,-43.07 156.13,-37.63 175.02,-32.59"/>
<polygon fill="#63b8ff" stroke="#63b8ff" points="175.98,-35.96 184.74,-30 174.18,-29.2 175.98,-35.96"/>
</g>
</g>
</svg>
