<?xml version="1.0" encoding="UTF-8" standalone="no"?>
<!DOCTYPE svg PUBLIC "-//W3C//DTD SVG 1.1//EN"
 "http://www.w3.org/Graphics/SVG/1.1/DTD/svg11.dtd">
<!-- Generated by graphviz version 2.44.1 (20220725.1945)
 -->
<!-- Title: minpass::sqlite3_client::Helpers::CommonExceptionCatch Pages: 1 -->
<svg width="336pt" height="124pt"
 viewBox="0.00 0.00 336.00 123.50" xmlns="http://www.w3.org/2000/svg" xmlns:xlink="http://www.w3.org/1999/xlink">
<g id="graph0" class="graph" transform="scale(1 1) rotate(0) translate(4 119.5)">
<title>minpass::sqlite3_client::Helpers::CommonExceptionCatch</title>
<!-- Node1 -->
<g id="node1" class="node">
<title>Node1</title>
<g id="a_node1"><a xlink:title=" ">
<polygon fill="#999999" stroke="#666666" points="328,-78 156,-78 156,-48 328,-48 328,-78"/>
<text text-anchor="start" x="164" y="-66" font-family="Helvetica,sans-Serif" font-size="10.00">minpass::sqlite3_client</text>
<text text-anchor="middle" x="242" y="-55" font-family="Helvetica,sans-Serif" font-size="10.00">::Helpers::CommonExceptionCatch</text>
</a>
</g>
</g>
<!-- Node2 -->
<g id="node2" class="node">
<title>Node2</title>
<g id="a_node2"><a xlink:href="helpers__test_8cc.html#a6a444c2aad524b3ffb7018a6e3ea38bf" target="_top" xlink:title=" ">
<polygon fill="white" stroke="#666666" points="106,-115.5 14,-115.5 14,-96.5 106,-96.5 106,-115.5"/>
<text text-anchor="middle" x="60" y="-103.5" font-family="Helvetica,sans-Serif" font-size="10.00">DROGON_TEST</text>
</a>
</g>
</g>
<!-- Node1&#45;&gt;Node2 -->
<g id="edge1" class="edge">
<title>Node1&#45;&gt;Node2</title>
<path fill="none" stroke="#63b8ff" d="M168.29,-80.37C145.27,-85.87 120.68,-91.74 100.86,-96.48"/>
<polygon fill="#63b8ff" stroke="#63b8ff" points="169.13,-83.77 178.04,-78.04 167.51,-76.96 169.13,-83.77"/>
</g>
<!-- Node3 -->
<g id="node3" class="node">
<title>Node3</title>
<g id="a_node3"><a xlink:href="classminpass_1_1_s_q_lite3_client.html#afbd76fe584142b8a997420facc9b731d" target="_top" xlink:title=" ">
<polygon fill="white" stroke="#666666" points="120,-78 0,-78 0,-48 120,-48 120,-78"/>
<text text-anchor="start" x="8" y="-66" font-family="Helvetica,sans-Serif" font-size="10.00">minpass::SQLite3Client</text>
<text text-anchor="middle" x="60" y="-55" font-family="Helvetica,sans-Serif" font-size="10.00">::SetPasswordData</text>
</a>
</g>
</g>
<!-- Node1&#45;&gt;Node3 -->
<g id="edge2" class="edge">
<title>Node1&#45;&gt;Node3</title>
<path fill="none" stroke="#63b8ff" d="M145.54,-63C136.86,-63 128.24,-63 120.02,-63"/>
<polygon fill="#63b8ff" stroke="#63b8ff" points="145.74,-66.5 155.74,-63 145.74,-59.5 145.74,-66.5"/>
</g>
<!-- Node4 -->
<g id="node4" class="node">
<title>Node4</title>
<g id="a_node4"><a xlink:href="classminpass_1_1_s_q_lite3_client.html#a1d977c8fdbb6dd1dd986297d81c8cbcb" target="_top" xlink:title=" ">
<polygon fill="white" stroke="#666666" points="120,-30 0,-30 0,0 120,0 120,-30"/>
<text text-anchor="start" x="8" y="-18" font-family="Helvetica,sans-Serif" font-size="10.00">minpass::SQLite3Client</text>
<text text-anchor="middle" x="60" y="-7" font-family="Helvetica,sans-Serif" font-size="10.00">::SQLite3Client</text>
</a>
</g>
</g>
<!-- Node1&#45;&gt;Node4 -->
<g id="edge3" class="edge">
<title>Node1&#45;&gt;Node4</title>
<path fill="none" stroke="#63b8ff" d="M174.81,-45.35C155.91,-40.31 135.51,-34.87 117.26,-30"/>
<polygon fill="#63b8ff" stroke="#63b8ff" points="173.98,-48.75 184.54,-47.94 175.78,-41.99 173.98,-48.75"/>
</g>
</g>
</svg>
