<?xml version="1.0" encoding="UTF-8" standalone="no"?>
<!DOCTYPE svg PUBLIC "-//W3C//DTD SVG 1.1//EN"
 "http://www.w3.org/Graphics/SVG/1.1/DTD/svg11.dtd">
<!-- Generated by graphviz version 2.44.1 (20220725.1945)
 -->
<!-- Title: minpass::sqlite3_client::Helpers::MakeResponse Pages: 1 -->
<svg width="295pt" height="76pt"
 viewBox="0.00 0.00 295.00 75.50" xmlns="http://www.w3.org/2000/svg" xmlns:xlink="http://www.w3.org/1999/xlink">
<g id="graph0" class="graph" transform="scale(1 1) rotate(0) translate(4 71.5)">
<title>minpass::sqlite3_client::Helpers::MakeResponse</title>
<!-- Node1 -->
<g id="node1" class="node">
<title>Node1</title>
<g id="a_node1"><a xlink:title=" ">
<polygon fill="#999999" stroke="#666666" points="287,-51 156,-51 156,-21 287,-21 287,-51"/>
<text text-anchor="start" x="164" y="-39" font-family="Helvetica,sans-Serif" font-size="10.00">minpass::sqlite3_client</text>
<text text-anchor="middle" x="221.5" y="-28" font-family="Helvetica,sans-Serif" font-size="10.00">::Helpers::MakeResponse</text>
</a>
</g>
</g>
<!-- Node2 -->
<g id="node2" class="node">
<title>Node2</title>
<g id="a_node2"><a xlink:href="helpers__test_8cc.html#a6923894483104bf8052ce458ce665e79" target="_top" xlink:title=" ">
<polygon fill="white" stroke="#666666" points="106,-67.5 14,-67.5 14,-48.5 106,-48.5 106,-67.5"/>
<text text-anchor="middle" x="60" y="-55.5" font-family="Helvetica,sans-Serif" font-size="10.00">DROGON_TEST</text>
</a>
</g>
</g>
<!-- Node1&#45;&gt;Node2 -->
<g id="edge1" class="edge">
<title>Node1&#45;&gt;Node2</title>
<path fill="none" stroke="#63b8ff" d="M145.45,-46.35C132.07,-48.2 118.5,-50.07 106.28,-51.75"/>
<polygon fill="#63b8ff" stroke="#63b8ff" points="146.2,-49.78 155.63,-44.95 145.24,-42.85 146.2,-49.78"/>
</g>
<!-- Node3 -->
<g id="node3" class="node">
<title>Node3</title>
<g id="a_node3"><a xlink:href="classminpass_1_1_s_q_lite3_client.html#adac300f7ca1228219724bb8b46e57d7d" target="_top" xlink:title=" ">
<polygon fill="white" stroke="#666666" points="120,-30 0,-30 0,0 120,0 120,-30"/>
<text text-anchor="start" x="8" y="-18" font-family="Helvetica,sans-Serif" font-size="10.00">minpass::SQLite3Client</text>
<text text-anchor="middle" x="60" y="-7" font-family="Helvetica,sans-Serif" font-size="10.00">::GetPasswordData</text>
</a>
</g>
</g>
<!-- Node1&#45;&gt;Node3 -->
<g id="edge2" class="edge">
<title>Node1&#45;&gt;Node3</title>
<path fill="none" stroke="#63b8ff" d="M145.65,-26.14C137.1,-25.02 128.47,-23.88 120.17,-22.79"/>
<polygon fill="#63b8ff" stroke="#63b8ff" points="145.25,-29.62 155.63,-27.46 146.17,-22.68 145.25,-29.62"/>
</g>
</g>
</svg>
