<?xml version="1.0" encoding="UTF-8" standalone="no"?>
<!DOCTYPE svg PUBLIC "-//W3C//DTD SVG 1.1//EN"
 "http://www.w3.org/Graphics/SVG/1.1/DTD/svg11.dtd">
<!-- Generated by graphviz version 2.44.1 (20220725.1945)
 -->
<!-- Title: minpass::sqlite3_client::Helpers::EmptyCallback Pages: 1 -->
<svg width="293pt" height="86pt"
 viewBox="0.00 0.00 293.00 86.00" xmlns="http://www.w3.org/2000/svg" xmlns:xlink="http://www.w3.org/1999/xlink">
<g id="graph0" class="graph" transform="scale(1 1) rotate(0) translate(4 82)">
<title>minpass::sqlite3_client::Helpers::EmptyCallback</title>
<!-- Node1 -->
<g id="node1" class="node">
<title>Node1</title>
<g id="a_node1"><a xlink:title=" ">
<polygon fill="#999999" stroke="#666666" points="285,-54 156,-54 156,-24 285,-24 285,-54"/>
<text text-anchor="start" x="164" y="-42" font-family="Helvetica,sans-Serif" font-size="10.00">minpass::sqlite3_client</text>
<text text-anchor="middle" x="220.5" y="-31" font-family="Helvetica,sans-Serif" font-size="10.00">::Helpers::EmptyCallback</text>
</a>
</g>
</g>
<!-- Node2 -->
<g id="node2" class="node">
<title>Node2</title>
<g id="a_node2"><a xlink:href="classminpass_1_1_s_q_lite3_client.html#afbd76fe584142b8a997420facc9b731d" target="_top" xlink:title=" ">
<polygon fill="white" stroke="#666666" points="120,-78 0,-78 0,-48 120,-48 120,-78"/>
<text text-anchor="start" x="8" y="-66" font-family="Helvetica,sans-Serif" font-size="10.00">minpass::SQLite3Client</text>
<text text-anchor="middle" x="60" y="-55" font-family="Helvetica,sans-Serif" font-size="10.00">::SetPasswordData</text>
</a>
</g>
</g>
<!-- Node1&#45;&gt;Node2 -->
<g id="edge1" class="edge">
<title>Node1&#45;&gt;Node2</title>
<path fill="none" stroke="#63b8ff" d="M145.9,-50.14C137.29,-51.45 128.58,-52.77 120.2,-54.04"/>
<polygon fill="#63b8ff" stroke="#63b8ff" points="146.58,-53.58 155.95,-48.62 145.53,-46.66 146.58,-53.58"/>
</g>
<!-- Node3 -->
<g id="node3" class="node">
<title>Node3</title>
<g id="a_node3"><a xlink:href="classminpass_1_1_s_q_lite3_client.html#a1d977c8fdbb6dd1dd986297d81c8cbcb" target="_top" xlink:title=" ">
<polygon fill="white" stroke="#666666" points="120,-30 0,-30 0,0 120,0 120,-30"/>
<text text-anchor="start" x="8" y="-18" font-family="Helvetica,sans-Serif" font-size="10.00">minpass::SQLite3Client</text>
<text text-anchor="middle" x="60" y="-7" font-family="Helvetica,sans-Serif" font-size="10.00">::SQLite3Client</text>
</a>
</g>
</g>
<!-- Node1&#45;&gt;Node3 -->
<g id="edge2" class="edge">
<title>Node1&#45;&gt;Node3</title>
<path fill="none" stroke="#63b8ff" d="M145.9,-27.86C137.29,-26.55 128.58,-25.23 120.2,-23.96"/>
<polygon fill="#63b8ff" stroke="#63b8ff" points="145.53,-31.34 155.95,-29.38 146.58,-24.42 145.53,-31.34"/>
</g>
</g>
</svg>
