<?xml version="1.0" encoding="UTF-8" standalone="no"?>
<!DOCTYPE svg PUBLIC "-//W3C//DTD SVG 1.1//EN"
 "http://www.w3.org/Graphics/SVG/1.1/DTD/svg11.dtd">
<!-- Generated by graphviz version 2.44.1 (20220725.1945)
 -->
<!-- Title: minpass::sqlite3_client::Helpers::ValidateRequest Pages: 1 -->
<svg width="298pt" height="76pt"
 viewBox="0.00 0.00 298.00 75.50" xmlns="http://www.w3.org/2000/svg" xmlns:xlink="http://www.w3.org/1999/xlink">
<g id="graph0" class="graph" transform="scale(1 1) rotate(0) translate(4 71.5)">
<title>minpass::sqlite3_client::Helpers::ValidateRequest</title>
<!-- Node1 -->
<g id="node1" class="node">
<title>Node1</title>
<g id="a_node1"><a xlink:title=" ">
<polygon fill="#999999" stroke="#666666" points="290,-51 156,-51 156,-21 290,-21 290,-51"/>
<text text-anchor="start" x="164" y="-39" font-family="Helvetica,sans-Serif" font-size="10.00">minpass::sqlite3_client</text>
<text text-anchor="middle" x="223" y="-28" font-family="Helvetica,sans-Serif" font-size="10.00">::Helpers::ValidateRequest</text>
</a>
</g>
</g>
<!-- Node2 -->
<g id="node2" class="node">
<title>Node2</title>
<g id="a_node2"><a xlink:href="helpers__test_8cc.html#a064c5203304b210c9dee2a0890d72c34" target="_top" xlink:title=" ">
<polygon fill="white" stroke="#666666" points="106,-67.5 14,-67.5 14,-48.5 106,-48.5 106,-67.5"/>
<text text-anchor="middle" x="60" y="-55.5" font-family="Helvetica,sans-Serif" font-size="10.00">DROGON_TEST</text>
</a>
</g>
</g>
<!-- Node1&#45;&gt;Node2 -->
<g id="edge1" class="edge">
<title>Node1&#45;&gt;Node2</title>
<path fill="none" stroke="#63b8ff" d="M145.37,-46.47C131.95,-48.3 118.38,-50.16 106.17,-51.83"/>
<polygon fill="#63b8ff" stroke="#63b8ff" points="146.15,-49.9 155.59,-45.08 145.2,-42.96 146.15,-49.9"/>
</g>
<!-- Node3 -->
<g id="node3" class="node">
<title>Node3</title>
<g id="a_node3"><a xlink:href="classminpass_1_1_s_q_lite3_client.html#afbd76fe584142b8a997420facc9b731d" target="_top" xlink:title=" ">
<polygon fill="white" stroke="#666666" points="120,-30 0,-30 0,0 120,0 120,-30"/>
<text text-anchor="start" x="8" y="-18" font-family="Helvetica,sans-Serif" font-size="10.00">minpass::SQLite3Client</text>
<text text-anchor="middle" x="60" y="-7" font-family="Helvetica,sans-Serif" font-size="10.00">::SetPasswordData</text>
</a>
</g>
</g>
<!-- Node1&#45;&gt;Node3 -->
<g id="edge2" class="edge">
<title>Node1&#45;&gt;Node3</title>
<path fill="none" stroke="#63b8ff" d="M145.57,-26.03C137,-24.91 128.36,-23.79 120.05,-22.7"/>
<polygon fill="#63b8ff" stroke="#63b8ff" points="145.22,-29.51 155.59,-27.34 146.12,-22.57 145.22,-29.51"/>
</g>
</g>
</svg>
