<?xml version="1.0" encoding="UTF-8" standalone="no"?>
<!DOCTYPE svg PUBLIC "-//W3C//DTD SVG 1.1//EN"
 "http://www.w3.org/Graphics/SVG/1.1/DTD/svg11.dtd">
<!-- Generated by graphviz version 2.44.1 (20220725.1945)
 -->
<!-- Title: src/minpass_crypto/crytopp_conversions.cc Pages: 1 -->
<svg width="694pt" height="159pt"
 viewBox="0.00 0.00 693.50 159.00" xmlns="http://www.w3.org/2000/svg" xmlns:xlink="http://www.w3.org/1999/xlink">
<g id="graph0" class="graph" transform="scale(1 1) rotate(0) translate(4 155)">
<title>src/minpass_crypto/crytopp_conversions.cc</title>
<!-- Node1 -->
<g id="node1" class="node">
<title>Node1</title>
<g id="a_node1"><a xlink:title=" ">
<polygon fill="#999999" stroke="#666666" points="427,-151 304,-151 304,-121 427,-121 427,-151"/>
<text text-anchor="start" x="312" y="-139" font-family="Helvetica,sans-Serif" font-size="10.00">src/minpass_crypto</text>
<text text-anchor="middle" x="365.5" y="-128" font-family="Helvetica,sans-Serif" font-size="10.00">/crytopp_conversions.cc</text>
</a>
</g>
</g>
<!-- Node2 -->
<g id="node2" class="node">
<title>Node2</title>
<g id="a_node2"><a xlink:href="crytopp__conversions_8h.html" target="_top" xlink:title=" ">
<polygon fill="white" stroke="#666666" points="301,-85 180,-85 180,-55 301,-55 301,-85"/>
<text text-anchor="start" x="188" y="-73" font-family="Helvetica,sans-Serif" font-size="10.00">minpass_crypto/crytopp</text>
<text text-anchor="middle" x="240.5" y="-62" font-family="Helvetica,sans-Serif" font-size="10.00">_conversions.h</text>
</a>
</g>
</g>
<!-- Node1&#45;&gt;Node2 -->
<g id="edge1" class="edge">
<title>Node1&#45;&gt;Node2</title>
<path fill="none" stroke="#63b8ff" d="M338.07,-120.95C320.08,-111.74 296.35,-99.6 276.8,-89.59"/>
<polygon fill="#63b8ff" stroke="#63b8ff" points="278.36,-86.45 267.87,-85.01 275.17,-92.69 278.36,-86.45"/>
</g>
<!-- Node3 -->
<g id="node3" class="node">
<title>Node3</title>
<g id="a_node3"><a xlink:title=" ">
<polygon fill="#e0e0e0" stroke="#999999" points="107,-19 0,-19 0,0 107,0 107,-19"/>
<text text-anchor="middle" x="53.5" y="-7" font-family="Helvetica,sans-Serif" font-size="10.00">cryptopp/config_int.h</text>
</a>
</g>
</g>
<!-- Node1&#45;&gt;Node3 -->
<g id="edge6" class="edge">
<title>Node1&#45;&gt;Node3</title>
<path fill="none" stroke="#63b8ff" d="M303.57,-126.2C261.6,-118.76 205.59,-105.88 159.5,-85 125.26,-69.49 90.55,-42.48 70.58,-25.59"/>
<polygon fill="#63b8ff" stroke="#63b8ff" points="72.82,-22.91 62.96,-19.04 68.26,-28.22 72.82,-22.91"/>
</g>
<!-- Node4 -->
<g id="node4" class="node">
<title>Node4</title>
<g id="a_node4"><a xlink:title=" ">
<polygon fill="#e0e0e0" stroke="#999999" points="229.5,-19 125.5,-19 125.5,0 229.5,0 229.5,-19"/>
<text text-anchor="middle" x="177.5" y="-7" font-family="Helvetica,sans-Serif" font-size="10.00">cryptopp/secblock.h</text>
</a>
</g>
</g>
<!-- Node1&#45;&gt;Node4 -->
<g id="edge9" class="edge">
<title>Node1&#45;&gt;Node4</title>
<path fill="none" stroke="#63b8ff" d="M303.98,-127.37C253.48,-119.69 187.75,-105.96 171.5,-85 159.24,-69.18 163.93,-45.39 169.6,-28.96"/>
<polygon fill="#63b8ff" stroke="#63b8ff" points="172.95,-29.98 173.29,-19.4 166.42,-27.46 172.95,-29.98"/>
</g>
<!-- Node6 -->
<g id="node6" class="node">
<title>Node6</title>
<g id="a_node6"><a xlink:title=" ">
<polygon fill="#e0e0e0" stroke="#999999" points="351.5,-19 307.5,-19 307.5,0 351.5,0 351.5,-19"/>
<text text-anchor="middle" x="329.5" y="-7" font-family="Helvetica,sans-Serif" font-size="10.00">vector</text>
</a>
</g>
</g>
<!-- Node1&#45;&gt;Node6 -->
<g id="edge12" class="edge">
<title>Node1&#45;&gt;Node6</title>
<path fill="none" stroke="#63b8ff" d="M360.7,-120.61C357.42,-110.65 353.05,-97.07 349.5,-85 343.96,-66.16 338.21,-44.46 334.3,-29.36"/>
<polygon fill="#63b8ff" stroke="#63b8ff" points="337.58,-28.07 331.71,-19.25 330.8,-29.81 337.58,-28.07"/>
</g>
<!-- Node7 -->
<g id="node7" class="node">
<title>Node7</title>
<g id="a_node7"><a xlink:title=" ">
<polygon fill="#e0e0e0" stroke="#999999" points="447,-79.5 358,-79.5 358,-60.5 447,-60.5 447,-79.5"/>
<text text-anchor="middle" x="402.5" y="-67.5" font-family="Helvetica,sans-Serif" font-size="10.00">cryptopp/osrng.h</text>
</a>
</g>
</g>
<!-- Node1&#45;&gt;Node7 -->
<g id="edge7" class="edge">
<title>Node1&#45;&gt;Node7</title>
<path fill="none" stroke="#63b8ff" d="M373.71,-120.8C379.2,-111.31 386.45,-98.76 392.31,-88.63"/>
<polygon fill="#63b8ff" stroke="#63b8ff" points="395.41,-90.25 397.39,-79.84 389.35,-86.75 395.41,-90.25"/>
</g>
<!-- Node8 -->
<g id="node8" class="node">
<title>Node8</title>
<g id="a_node8"><a xlink:title=" ">
<polygon fill="#e0e0e0" stroke="#999999" points="557.5,-79.5 465.5,-79.5 465.5,-60.5 557.5,-60.5 557.5,-79.5"/>
<text text-anchor="middle" x="511.5" y="-67.5" font-family="Helvetica,sans-Serif" font-size="10.00">cryptopp/scrypt.h</text>
</a>
</g>
</g>
<!-- Node1&#45;&gt;Node8 -->
<g id="edge8" class="edge">
<title>Node1&#45;&gt;Node8</title>
<path fill="none" stroke="#63b8ff" d="M397.54,-120.95C422.92,-109.83 458.06,-94.42 482.59,-83.67"/>
<polygon fill="#63b8ff" stroke="#63b8ff" points="484.32,-86.74 492.07,-79.52 481.51,-80.33 484.32,-86.74"/>
</g>
<!-- Node9 -->
<g id="node9" class="node">
<title>Node9</title>
<g id="a_node9"><a xlink:title=" ">
<polygon fill="#e0e0e0" stroke="#999999" points="629.5,-79.5 575.5,-79.5 575.5,-60.5 629.5,-60.5 629.5,-79.5"/>
<text text-anchor="middle" x="602.5" y="-67.5" font-family="Helvetica,sans-Serif" font-size="10.00">iostream</text>
</a>
</g>
</g>
<!-- Node1&#45;&gt;Node9 -->
<g id="edge10" class="edge">
<title>Node1&#45;&gt;Node9</title>
<path fill="none" stroke="#63b8ff" d="M427.2,-121.79C467.26,-112.69 520.4,-99.63 566.5,-85 568.37,-84.41 570.28,-83.77 572.2,-83.1"/>
<polygon fill="#63b8ff" stroke="#63b8ff" points="573.54,-86.33 581.72,-79.6 571.13,-79.76 573.54,-86.33"/>
</g>
<!-- Node10 -->
<g id="node10" class="node">
<title>Node10</title>
<g id="a_node10"><a xlink:title=" ">
<polygon fill="#e0e0e0" stroke="#999999" points="685.5,-79.5 647.5,-79.5 647.5,-60.5 685.5,-60.5 685.5,-79.5"/>
<text text-anchor="middle" x="666.5" y="-67.5" font-family="Helvetica,sans-Serif" font-size="10.00">tuple</text>
</a>
</g>
</g>
<!-- Node1&#45;&gt;Node10 -->
<g id="edge11" class="edge">
<title>Node1&#45;&gt;Node10</title>
<path fill="none" stroke="#63b8ff" d="M427.19,-128.74C483.35,-121.87 568.01,-108.55 638.5,-85 639.72,-84.59 640.95,-84.14 642.18,-83.66"/>
<polygon fill="#63b8ff" stroke="#63b8ff" points="643.74,-86.8 651.43,-79.51 640.87,-80.41 643.74,-86.8"/>
</g>
<!-- Node2&#45;&gt;Node3 -->
<g id="edge2" class="edge">
<title>Node2&#45;&gt;Node3</title>
<path fill="none" stroke="#63b8ff" d="M195.71,-54.99C163.58,-44.94 120.8,-31.55 90.58,-22.1"/>
<polygon fill="#63b8ff" stroke="#63b8ff" points="91.43,-18.7 80.84,-19.05 89.34,-25.38 91.43,-18.7"/>
</g>
<!-- Node2&#45;&gt;Node4 -->
<g id="edge3" class="edge">
<title>Node2&#45;&gt;Node4</title>
<path fill="none" stroke="#63b8ff" d="M225.25,-54.84C215.92,-46.17 203.97,-35.08 194.35,-26.15"/>
<polygon fill="#63b8ff" stroke="#63b8ff" points="196.65,-23.51 186.94,-19.27 191.89,-28.64 196.65,-23.51"/>
</g>
<!-- Node5 -->
<g id="node5" class="node">
<title>Node5</title>
<g id="a_node5"><a xlink:title=" ">
<polygon fill="#e0e0e0" stroke="#999999" points="289,-19 248,-19 248,0 289,0 289,-19"/>
<text text-anchor="middle" x="268.5" y="-7" font-family="Helvetica,sans-Serif" font-size="10.00">string</text>
</a>
</g>
</g>
<!-- Node2&#45;&gt;Node5 -->
<g id="edge4" class="edge">
<title>Node2&#45;&gt;Node5</title>
<path fill="none" stroke="#63b8ff" d="M247.28,-54.84C251.09,-46.87 255.89,-36.84 259.96,-28.33"/>
<polygon fill="#63b8ff" stroke="#63b8ff" points="263.14,-29.8 264.3,-19.27 256.83,-26.77 263.14,-29.8"/>
</g>
<!-- Node2&#45;&gt;Node6 -->
<g id="edge5" class="edge">
<title>Node2&#45;&gt;Node6</title>
<path fill="none" stroke="#63b8ff" d="M262.04,-54.84C275.97,-45.68 294.03,-33.82 307.95,-24.66"/>
<polygon fill="#63b8ff" stroke="#63b8ff" points="309.99,-27.51 316.42,-19.09 306.15,-21.66 309.99,-27.51"/>
</g>
</g>
</svg>
