<?xml version="1.0" encoding="UTF-8" standalone="no"?>
<!DOCTYPE svg PUBLIC "-//W3C//DTD SVG 1.1//EN"
 "http://www.w3.org/Graphics/SVG/1.1/DTD/svg11.dtd">
<!-- Generated by graphviz version 2.44.1 (20220725.1945)
 -->
<!-- Title: include/minpass_crypto/crytopp_conversions.h Pages: 1 -->
<svg width="400pt" height="159pt"
 viewBox="0.00 0.00 399.50 159.00" xmlns="http://www.w3.org/2000/svg" xmlns:xlink="http://www.w3.org/1999/xlink">
<g id="graph0" class="graph" transform="scale(1 1) rotate(0) translate(4 155)">
<title>include/minpass_crypto/crytopp_conversions.h</title>
<!-- Node1 -->
<g id="node1" class="node">
<title>Node1</title>
<g id="a_node1"><a xlink:title=" ">
<polygon fill="#999999" stroke="#666666" points="257.5,-151 138.5,-151 138.5,-121 257.5,-121 257.5,-151"/>
<text text-anchor="start" x="146.5" y="-139" font-family="Helvetica,sans-Serif" font-size="10.00">include/minpass_crypto</text>
<text text-anchor="middle" x="198" y="-128" font-family="Helvetica,sans-Serif" font-size="10.00">/crytopp_conversions.h</text>
</a>
</g>
</g>
<!-- Node2 -->
<g id="node2" class="node">
<title>Node2</title>
<g id="a_node2"><a xlink:href="minpass__crypto_8h.html" target="_top" xlink:title=" ">
<polygon fill="white" stroke="#666666" points="128,-79.5 0,-79.5 0,-60.5 128,-60.5 128,-79.5"/>
<text text-anchor="middle" x="64" y="-67.5" font-family="Helvetica,sans-Serif" font-size="10.00">include/minpass_crypto.h</text>
</a>
</g>
</g>
<!-- Node1&#45;&gt;Node2 -->
<g id="edge1" class="edge">
<title>Node1&#45;&gt;Node2</title>
<path fill="none" stroke="#63b8ff" d="M159.52,-116.62C133.95,-104.41 101.56,-88.94 81.83,-79.52"/>
<polygon fill="#63b8ff" stroke="#63b8ff" points="158.06,-119.8 168.59,-120.95 161.08,-113.49 158.06,-119.8"/>
</g>
<!-- Node4 -->
<g id="node4" class="node">
<title>Node4</title>
<g id="a_node4"><a xlink:href="cryptopp-test_8cc.html" target="_top" xlink:title=" ">
<polygon fill="white" stroke="#666666" points="250,-79.5 146,-79.5 146,-60.5 250,-60.5 250,-79.5"/>
<text text-anchor="middle" x="198" y="-67.5" font-family="Helvetica,sans-Serif" font-size="10.00">src/cryptopp&#45;test.cc</text>
</a>
</g>
</g>
<!-- Node1&#45;&gt;Node4 -->
<g id="edge3" class="edge">
<title>Node1&#45;&gt;Node4</title>
<path fill="none" stroke="#63b8ff" d="M198,-110.6C198,-99.8 198,-87.78 198,-79.84"/>
<polygon fill="#63b8ff" stroke="#63b8ff" points="194.5,-110.8 198,-120.8 201.5,-110.8 194.5,-110.8"/>
</g>
<!-- Node5 -->
<g id="node5" class="node">
<title>Node5</title>
<g id="a_node5"><a xlink:href="crytopp__conversions_8cc.html" target="_top" xlink:title=" ">
<polygon fill="white" stroke="#666666" points="391.5,-85 268.5,-85 268.5,-55 391.5,-55 391.5,-85"/>
<text text-anchor="start" x="276.5" y="-73" font-family="Helvetica,sans-Serif" font-size="10.00">src/minpass_crypto</text>
<text text-anchor="middle" x="330" y="-62" font-family="Helvetica,sans-Serif" font-size="10.00">/crytopp_conversions.cc</text>
</a>
</g>
</g>
<!-- Node1&#45;&gt;Node5 -->
<g id="edge4" class="edge">
<title>Node1&#45;&gt;Node5</title>
<path fill="none" stroke="#63b8ff" d="M236.13,-116.51C256.84,-106.47 282.03,-94.26 301.1,-85.01"/>
<polygon fill="#63b8ff" stroke="#63b8ff" points="234.44,-113.44 226.97,-120.95 237.49,-119.74 234.44,-113.44"/>
</g>
<!-- Node3 -->
<g id="node3" class="node">
<title>Node3</title>
<g id="a_node3"><a xlink:href="minpass__crypto_8cc.html" target="_top" xlink:title=" ">
<polygon fill="white" stroke="#666666" points="122,-19 6,-19 6,0 122,0 122,-19"/>
<text text-anchor="middle" x="64" y="-7" font-family="Helvetica,sans-Serif" font-size="10.00">src/minpass_crypto.cc</text>
</a>
</g>
</g>
<!-- Node2&#45;&gt;Node3 -->
<g id="edge2" class="edge">
<title>Node2&#45;&gt;Node3</title>
<path fill="none" stroke="#63b8ff" d="M64,-50.16C64,-39.74 64,-27.3 64,-19.17"/>
<polygon fill="#63b8ff" stroke="#63b8ff" points="60.5,-50.37 64,-60.37 67.5,-50.37 60.5,-50.37"/>
</g>
</g>
</svg>
