<?xml version="1.0" encoding="UTF-8" standalone="no"?>
<!DOCTYPE svg PUBLIC "-//W3C//DTD SVG 1.1//EN"
 "http://www.w3.org/Graphics/SVG/1.1/DTD/svg11.dtd">
<!-- Generated by graphviz version 2.44.1 (20220725.1945)
 -->
<!-- Title: include/minpass_crypto/crytopp_conversions.h Pages: 1 -->
<svg width="360pt" height="93pt"
 viewBox="0.00 0.00 359.50 93.00" xmlns="http://www.w3.org/2000/svg" xmlns:xlink="http://www.w3.org/1999/xlink">
<g id="graph0" class="graph" transform="scale(1 1) rotate(0) translate(4 89)">
<title>include/minpass_crypto/crytopp_conversions.h</title>
<!-- Node1 -->
<g id="node1" class="node">
<title>Node1</title>
<g id="a_node1"><a xlink:title=" ">
<polygon fill="#999999" stroke="#666666" points="282,-85 163,-85 163,-55 282,-55 282,-85"/>
<text text-anchor="start" x="171" y="-73" font-family="Helvetica,sans-Serif" font-size="10.00">include/minpass_crypto</text>
<text text-anchor="middle" x="222.5" y="-62" font-family="Helvetica,sans-Serif" font-size="10.00">/crytopp_conversions.h</text>
</a>
</g>
</g>
<!-- Node2 -->
<g id="node2" class="node">
<title>Node2</title>
<g id="a_node2"><a xlink:title=" ">
<polygon fill="#e0e0e0" stroke="#999999" points="107,-19 0,-19 0,0 107,0 107,-19"/>
<text text-anchor="middle" x="53.5" y="-7" font-family="Helvetica,sans-Serif" font-size="10.00">cryptopp/config_int.h</text>
</a>
</g>
</g>
<!-- Node1&#45;&gt;Node2 -->
<g id="edge1" class="edge">
<title>Node1&#45;&gt;Node2</title>
<path fill="none" stroke="#63b8ff" d="M182.02,-54.99C153.32,-45.05 115.22,-31.86 87.97,-22.43"/>
<polygon fill="#63b8ff" stroke="#63b8ff" points="89.05,-19.1 78.46,-19.14 86.76,-25.72 89.05,-19.1"/>
</g>
<!-- Node3 -->
<g id="node3" class="node">
<title>Node3</title>
<g id="a_node3"><a xlink:title=" ">
<polygon fill="#e0e0e0" stroke="#999999" points="229.5,-19 125.5,-19 125.5,0 229.5,0 229.5,-19"/>
<text text-anchor="middle" x="177.5" y="-7" font-family="Helvetica,sans-Serif" font-size="10.00">cryptopp/secblock.h</text>
</a>
</g>
</g>
<!-- Node1&#45;&gt;Node3 -->
<g id="edge2" class="edge">
<title>Node1&#45;&gt;Node3</title>
<path fill="none" stroke="#63b8ff" d="M211.61,-54.84C205.21,-46.52 197.08,-35.96 190.37,-27.23"/>
<polygon fill="#63b8ff" stroke="#63b8ff" points="193.11,-25.06 184.24,-19.27 187.57,-29.33 193.11,-25.06"/>
</g>
<!-- Node4 -->
<g id="node4" class="node">
<title>Node4</title>
<g id="a_node4"><a xlink:title=" ">
<polygon fill="#e0e0e0" stroke="#999999" points="289,-19 248,-19 248,0 289,0 289,-19"/>
<text text-anchor="middle" x="268.5" y="-7" font-family="Helvetica,sans-Serif" font-size="10.00">string</text>
</a>
</g>
</g>
<!-- Node1&#45;&gt;Node4 -->
<g id="edge3" class="edge">
<title>Node1&#45;&gt;Node4</title>
<path fill="none" stroke="#63b8ff" d="M233.64,-54.84C240.18,-46.52 248.48,-35.96 255.34,-27.23"/>
<polygon fill="#63b8ff" stroke="#63b8ff" points="258.18,-29.29 261.61,-19.27 252.67,-24.96 258.18,-29.29"/>
</g>
<!-- Node5 -->
<g id="node5" class="node">
<title>Node5</title>
<g id="a_node5"><a xlink:title=" ">
<polygon fill="#e0e0e0" stroke="#999999" points="351.5,-19 307.5,-19 307.5,0 351.5,0 351.5,-19"/>
<text text-anchor="middle" x="329.5" y="-7" font-family="Helvetica,sans-Serif" font-size="10.00">vector</text>
</a>
</g>
</g>
<!-- Node1&#45;&gt;Node5 -->
<g id="edge4" class="edge">
<title>Node1&#45;&gt;Node5</title>
<path fill="none" stroke="#63b8ff" d="M248.13,-54.99C265.34,-45.58 287.9,-33.24 304.9,-23.95"/>
<polygon fill="#63b8ff" stroke="#63b8ff" points="306.6,-27.01 313.7,-19.14 303.25,-20.87 306.6,-27.01"/>
</g>
</g>
</svg>
