<?xml version="1.0" encoding="UTF-8" standalone="no"?>
<!DOCTYPE svg PUBLIC "-//W3C//DTD SVG 1.1//EN"
 "http://www.w3.org/Graphics/SVG/1.1/DTD/svg11.dtd">
<!-- Generated by graphviz version 2.44.1 (20220725.1945)
 -->
<!-- Title: src Pages: 1 -->
<svg width="332pt" height="98pt"
 viewBox="0.00 0.00 332.00 98.00" xmlns="http://www.w3.org/2000/svg" xmlns:xlink="http://www.w3.org/1999/xlink">
<g id="graph0" class="graph" transform="scale(1 1) rotate(0) translate(4 94)">
<title>src</title>
<g id="clust1" class="cluster">
<title>clusterdir_68267d1309a1af8e8297ef4c3efbcdba</title>
<g id="a_clust1"><a xlink:href="dir_68267d1309a1af8e8297ef4c3efbcdba.html" target="_top">
<polygon fill="#edf0f7" stroke="#404040" stroke-width="2" points="8,-47 8,-82 316,-82 316,-47 8,-47"/>
</a>
</g>
</g>
<!-- dir_68267d1309a1af8e8297ef4c3efbcdba -->
<g id="node1" class="node">
<title>dir_68267d1309a1af8e8297ef4c3efbcdba</title>
<text text-anchor="middle" x="293" y="-62" font-family="Helvetica,sans-Serif" font-size="10.00">src</text>
</g>
<!-- dir_d44c64559bbebec7f509842c48db8b23 -->
<g id="node5" class="node">
<title>dir_d44c64559bbebec7f509842c48db8b23</title>
<g id="a_node5"><a xlink:href="dir_d44c64559bbebec7f509842c48db8b23.html" target="_top" xlink:title="include">
<polygon fill="#edf0f7" stroke="red" points="191.5,-19 144.5,-19 144.5,0 191.5,0 191.5,-19"/>
<text text-anchor="middle" x="168" y="-7" font-family="Helvetica,sans-Serif" font-size="10.00">include</text>
</a>
</g>
</g>
<!-- dir_68267d1309a1af8e8297ef4c3efbcdba&#45;&gt;dir_d44c64559bbebec7f509842c48db8b23 -->
<g id="edge1" class="edge">
<title>dir_68267d1309a1af8e8297ef4c3efbcdba&#45;&gt;dir_d44c64559bbebec7f509842c48db8b23</title>
<path fill="none" stroke="#63b8ff" d="M281.65,-54.82C277.77,-52.09 273.32,-49.22 269,-47 247.29,-35.85 221.38,-26.56 201.24,-20.14"/>
<polygon fill="#63b8ff" stroke="#63b8ff" points="202.16,-16.76 191.57,-17.14 200.08,-23.45 202.16,-16.76"/>
<g id="a_edge1&#45;headlabel"><a xlink:href="dir_000006_000000.html" target="_top" xlink:title="10">
<text text-anchor="middle" x="206.43" y="-12.62" font-family="Helvetica,sans-Serif" font-size="10.00" fill="#63b8ff">10</text>
</a>
</g>
</g>
<!-- dir_cf04d3f0e204642a35f97402e1f391b1 -->
<g id="node2" class="node">
<title>dir_cf04d3f0e204642a35f97402e1f391b1</title>
<g id="a_node2"><a xlink:href="dir_cf04d3f0e204642a35f97402e1f391b1.html" target="_top" xlink:title="minpass_crypto">
<polygon fill="#a2b4d6" stroke="#404040" points="260,-74 174,-74 174,-55 260,-55 260,-74"/>
<text text-anchor="middle" x="217" y="-62" font-family="Helvetica,sans-Serif" font-size="10.00">minpass_crypto</text>
</a>
</g>
</g>
<!-- dir_cf04d3f0e204642a35f97402e1f391b1&#45;&gt;dir_d44c64559bbebec7f509842c48db8b23 -->
<g id="edge2" class="edge">
<title>dir_cf04d3f0e204642a35f97402e1f391b1&#45;&gt;dir_d44c64559bbebec7f509842c48db8b23</title>
<path fill="none" stroke="#63b8ff" d="M208.91,-54.75C201.84,-47.11 191.41,-35.82 182.85,-26.56"/>
<polygon fill="#63b8ff" stroke="#63b8ff" points="185.3,-24.06 175.94,-19.09 180.16,-28.81 185.3,-24.06"/>
<g id="a_edge2&#45;headlabel"><a xlink:href="dir_000002_000000.html" target="_top" xlink:title="2">
<text text-anchor="middle" x="189.82" y="-22.27" font-family="Helvetica,sans-Serif" font-size="10.00" fill="#63b8ff">2</text>
</a>
</g>
</g>
<!-- dir_da607ccb4a15256971fcea5f484b1863 -->
<g id="node3" class="node">
<title>dir_da607ccb4a15256971fcea5f484b1863</title>
<g id="a_node3"><a xlink:href="dir_da607ccb4a15256971fcea5f484b1863.html" target="_top" xlink:title="sqlite3_client">
<polygon fill="#a2b4d6" stroke="#404040" points="156,-74 82,-74 82,-55 156,-55 156,-74"/>
<text text-anchor="middle" x="119" y="-62" font-family="Helvetica,sans-Serif" font-size="10.00">sqlite3_client</text>
</a>
</g>
</g>
<!-- dir_da607ccb4a15256971fcea5f484b1863&#45;&gt;dir_d44c64559bbebec7f509842c48db8b23 -->
<g id="edge3" class="edge">
<title>dir_da607ccb4a15256971fcea5f484b1863&#45;&gt;dir_d44c64559bbebec7f509842c48db8b23</title>
<path fill="none" stroke="#63b8ff" d="M127.09,-54.75C134.16,-47.11 144.59,-35.82 153.15,-26.56"/>
<polygon fill="#63b8ff" stroke="#63b8ff" points="155.84,-28.81 160.06,-19.09 150.7,-24.06 155.84,-28.81"/>
<g id="a_edge3&#45;headlabel"><a xlink:href="dir_000004_000000.html" target="_top" xlink:title="1">
<text text-anchor="middle" x="155.49" y="-30.87" font-family="Helvetica,sans-Serif" font-size="10.00" fill="#63b8ff">1</text>
</a>
</g>
</g>
<!-- dir_7b5d38f1875f1b693f62ca6a108a1129 -->
<g id="node4" class="node">
<title>dir_7b5d38f1875f1b693f62ca6a108a1129</title>
<g id="a_node4"><a xlink:href="dir_7b5d38f1875f1b693f62ca6a108a1129.html" target="_top" xlink:title="utilities">
<polygon fill="#a2b4d6" stroke="#404040" points="63.5,-74 16.5,-74 16.5,-55 63.5,-55 63.5,-74"/>
<text text-anchor="middle" x="40" y="-62" font-family="Helvetica,sans-Serif" font-size="10.00">utilities</text>
</a>
</g>
</g>
<!-- dir_7b5d38f1875f1b693f62ca6a108a1129&#45;&gt;dir_d44c64559bbebec7f509842c48db8b23 -->
<g id="edge4" class="edge">
<title>dir_7b5d38f1875f1b693f62ca6a108a1129&#45;&gt;dir_d44c64559bbebec7f509842c48db8b23</title>
<path fill="none" stroke="#63b8ff" d="M56.3,-54.96C61.58,-52.3 67.49,-49.43 73,-47 93.28,-38.06 116.5,-29.11 134.91,-22.32"/>
<polygon fill="#63b8ff" stroke="#63b8ff" points="136.13,-25.6 144.32,-18.88 133.72,-19.02 136.13,-25.6"/>
<g id="a_edge4&#45;headlabel"><a xlink:href="dir_000009_000000.html" target="_top" xlink:title="1">
<text text-anchor="middle" x="133.73" y="-27" font-family="Helvetica,sans-Serif" font-size="10.00" fill="#63b8ff">1</text>
</a>
</g>
</g>
</g>
</svg>
