<?xml version="1.0" encoding="UTF-8" standalone="no"?>
<!DOCTYPE svg PUBLIC "-//W3C//DTD SVG 1.1//EN"
 "http://www.w3.org/Graphics/SVG/1.1/DTD/svg11.dtd">
<!-- Generated by graphviz version 2.44.1 (20220725.1945)
 -->
<!-- Title: include/sqlite3_client/helpers.h Pages: 1 -->
<svg width="336pt" height="104pt"
 viewBox="0.00 0.00 336.00 104.00" xmlns="http://www.w3.org/2000/svg" xmlns:xlink="http://www.w3.org/1999/xlink">
<g id="graph0" class="graph" transform="scale(1 1) rotate(0) translate(4 100)">
<title>include/sqlite3_client/helpers.h</title>
<!-- Node1 -->
<g id="node1" class="node">
<title>Node1</title>
<g id="a_node1"><a xlink:title=" ">
<polygon fill="#999999" stroke="#666666" points="220.5,-96 113.5,-96 113.5,-66 220.5,-66 220.5,-96"/>
<text text-anchor="start" x="121.5" y="-84" font-family="Helvetica,sans-Serif" font-size="10.00">include/sqlite3_client</text>
<text text-anchor="middle" x="167" y="-73" font-family="Helvetica,sans-Serif" font-size="10.00">/helpers.h</text>
</a>
</g>
</g>
<!-- Node2 -->
<g id="node2" class="node">
<title>Node2</title>
<g id="a_node2"><a xlink:href="sqlite3__client_8cc.html" target="_top" xlink:title=" ">
<polygon fill="white" stroke="#666666" points="104,-24.5 0,-24.5 0,-5.5 104,-5.5 104,-24.5"/>
<text text-anchor="middle" x="52" y="-12.5" font-family="Helvetica,sans-Serif" font-size="10.00">src/sqlite3_client.cc</text>
</a>
</g>
</g>
<!-- Node1&#45;&gt;Node2 -->
<g id="edge1" class="edge">
<title>Node1&#45;&gt;Node2</title>
<path fill="none" stroke="#63b8ff" d="M132.81,-60.97C111.06,-48.87 83.94,-33.78 67.3,-24.52"/>
<polygon fill="#63b8ff" stroke="#63b8ff" points="131.32,-64.15 141.76,-65.95 134.73,-58.03 131.32,-64.15"/>
</g>
<!-- Node3 -->
<g id="node3" class="node">
<title>Node3</title>
<g id="a_node3"><a xlink:href="helpers_8cc.html" target="_top" xlink:title=" ">
<polygon fill="white" stroke="#666666" points="212,-30 122,-30 122,0 212,0 212,-30"/>
<text text-anchor="start" x="130" y="-18" font-family="Helvetica,sans-Serif" font-size="10.00">src/sqlite3_client</text>
<text text-anchor="middle" x="167" y="-7" font-family="Helvetica,sans-Serif" font-size="10.00">/helpers.cc</text>
</a>
</g>
</g>
<!-- Node1&#45;&gt;Node3 -->
<g id="edge2" class="edge">
<title>Node1&#45;&gt;Node3</title>
<path fill="none" stroke="#63b8ff" d="M167,-55.54C167,-46.96 167,-37.61 167,-30.16"/>
<polygon fill="#63b8ff" stroke="#63b8ff" points="163.5,-55.8 167,-65.8 170.5,-55.8 163.5,-55.8"/>
</g>
<!-- Node4 -->
<g id="node4" class="node">
<title>Node4</title>
<g id="a_node4"><a xlink:href="helpers__test_8cc.html" target="_top" xlink:title=" ">
<polygon fill="white" stroke="#666666" points="328,-30 230,-30 230,0 328,0 328,-30"/>
<text text-anchor="start" x="238" y="-18" font-family="Helvetica,sans-Serif" font-size="10.00">tests/sqlite3_client</text>
<text text-anchor="middle" x="279" y="-7" font-family="Helvetica,sans-Serif" font-size="10.00">/helpers_test.cc</text>
</a>
</g>
</g>
<!-- Node1&#45;&gt;Node4 -->
<g id="edge3" class="edge">
<title>Node1&#45;&gt;Node4</title>
<path fill="none" stroke="#63b8ff" d="M200.31,-60.97C217.69,-51.03 238.59,-39.09 254.48,-30.01"/>
<polygon fill="#63b8ff" stroke="#63b8ff" points="198.52,-57.95 191.58,-65.95 202,-64.03 198.52,-57.95"/>
</g>
</g>
</svg>
