<?xml version="1.0" encoding="UTF-8" standalone="no"?>
<!DOCTYPE svg PUBLIC "-//W3C//DTD SVG 1.1//EN"
 "http://www.w3.org/Graphics/SVG/1.1/DTD/svg11.dtd">
<!-- Generated by graphviz version 2.44.1 (20220725.1945)
 -->
<!-- Title: include/sqlite3_client/helpers.h Pages: 1 -->
<svg width="536pt" height="148pt"
 viewBox="0.00 0.00 535.50 148.00" xmlns="http://www.w3.org/2000/svg" xmlns:xlink="http://www.w3.org/1999/xlink">
<g id="graph0" class="graph" transform="scale(1 1) rotate(0) translate(4 144)">
<title>include/sqlite3_client/helpers.h</title>
<!-- Node1 -->
<g id="node1" class="node">
<title>Node1</title>
<g id="a_node1"><a xlink:title=" ">
<polygon fill="#999999" stroke="#666666" points="292.5,-140 185.5,-140 185.5,-110 292.5,-110 292.5,-140"/>
<text text-anchor="start" x="193.5" y="-128" font-family="Helvetica,sans-Serif" font-size="10.00">include/sqlite3_client</text>
<text text-anchor="middle" x="239" y="-117" font-family="Helvetica,sans-Serif" font-size="10.00">/helpers.h</text>
</a>
</g>
</g>
<!-- Node2 -->
<g id="node2" class="node">
<title>Node2</title>
<g id="a_node2"><a xlink:title=" ">
<polygon fill="#e0e0e0" stroke="#999999" points="102,-74 0,-74 0,-55 102,-55 102,-74"/>
<text text-anchor="middle" x="51" y="-62" font-family="Helvetica,sans-Serif" font-size="10.00">drogon/HttpTypes.h</text>
</a>
</g>
</g>
<!-- Node1&#45;&gt;Node2 -->
<g id="edge1" class="edge">
<title>Node1&#45;&gt;Node2</title>
<path fill="none" stroke="#63b8ff" d="M193.97,-109.99C161.66,-99.94 118.66,-86.55 88.27,-77.1"/>
<polygon fill="#63b8ff" stroke="#63b8ff" points="89.08,-73.68 78.49,-74.05 87,-80.37 89.08,-73.68"/>
</g>
<!-- Node3 -->
<g id="node3" class="node">
<title>Node3</title>
<g id="a_node3"><a xlink:title=" ">
<polygon fill="#e0e0e0" stroke="#999999" points="253.5,-74 120.5,-74 120.5,-55 253.5,-55 253.5,-74"/>
<text text-anchor="middle" x="187" y="-62" font-family="Helvetica,sans-Serif" font-size="10.00">drogon/drogon_callbacks.h</text>
</a>
</g>
</g>
<!-- Node1&#45;&gt;Node3 -->
<g id="edge2" class="edge">
<title>Node1&#45;&gt;Node3</title>
<path fill="none" stroke="#63b8ff" d="M226.41,-109.84C218.94,-101.43 209.44,-90.74 201.63,-81.96"/>
<polygon fill="#63b8ff" stroke="#63b8ff" points="204.05,-79.41 194.79,-74.27 198.82,-84.07 204.05,-79.41"/>
</g>
<!-- Node4 -->
<g id="node4" class="node">
<title>Node4</title>
<g id="a_node4"><a xlink:title=" ">
<polygon fill="#e0e0e0" stroke="#999999" points="310,-74 272,-74 272,-55 310,-55 310,-74"/>
<text text-anchor="middle" x="291" y="-62" font-family="Helvetica,sans-Serif" font-size="10.00">tuple</text>
</a>
</g>
</g>
<!-- Node1&#45;&gt;Node4 -->
<g id="edge3" class="edge">
<title>Node1&#45;&gt;Node4</title>
<path fill="none" stroke="#63b8ff" d="M251.59,-109.84C259.06,-101.43 268.56,-90.74 276.37,-81.96"/>
<polygon fill="#63b8ff" stroke="#63b8ff" points="279.18,-84.07 283.21,-74.27 273.95,-79.41 279.18,-84.07"/>
</g>
<!-- Node5 -->
<g id="node5" class="node">
<title>Node5</title>
<g id="a_node5"><a xlink:href="minpass__types_8h.html" target="_top" xlink:title=" ">
<polygon fill="white" stroke="#666666" points="419.5,-74 328.5,-74 328.5,-55 419.5,-55 419.5,-74"/>
<text text-anchor="middle" x="374" y="-62" font-family="Helvetica,sans-Serif" font-size="10.00">minpass_types.h</text>
</a>
</g>
</g>
<!-- Node1&#45;&gt;Node5 -->
<g id="edge4" class="edge">
<title>Node1&#45;&gt;Node5</title>
<path fill="none" stroke="#63b8ff" d="M271.34,-109.99C293.66,-100.31 323.1,-87.56 344.73,-78.18"/>
<polygon fill="#63b8ff" stroke="#63b8ff" points="346.28,-81.33 354.06,-74.14 343.5,-74.9 346.28,-81.33"/>
</g>
<!-- Node6 -->
<g id="node6" class="node">
<title>Node6</title>
<g id="a_node6"><a xlink:title=" ">
<polygon fill="#e0e0e0" stroke="#999999" points="335,-19 283,-19 283,0 335,0 335,-19"/>
<text text-anchor="middle" x="309" y="-7" font-family="Helvetica,sans-Serif" font-size="10.00">sstream</text>
</a>
</g>
</g>
<!-- Node5&#45;&gt;Node6 -->
<g id="edge5" class="edge">
<title>Node5&#45;&gt;Node6</title>
<path fill="none" stroke="#63b8ff" d="M363.56,-54.98C353.85,-47.07 339.18,-35.11 327.5,-25.58"/>
<polygon fill="#63b8ff" stroke="#63b8ff" points="329.6,-22.78 319.63,-19.17 325.17,-28.2 329.6,-22.78"/>
</g>
<!-- Node7 -->
<g id="node7" class="node">
<title>Node7</title>
<g id="a_node7"><a xlink:title=" ">
<polygon fill="#e0e0e0" stroke="#999999" points="394.5,-19 353.5,-19 353.5,0 394.5,0 394.5,-19"/>
<text text-anchor="middle" x="374" y="-7" font-family="Helvetica,sans-Serif" font-size="10.00">string</text>
</a>
</g>
</g>
<!-- Node5&#45;&gt;Node7 -->
<g id="edge6" class="edge">
<title>Node5&#45;&gt;Node7</title>
<path fill="none" stroke="#63b8ff" d="M374,-54.75C374,-47.8 374,-37.85 374,-29.13"/>
<polygon fill="#63b8ff" stroke="#63b8ff" points="377.5,-29.09 374,-19.09 370.5,-29.09 377.5,-29.09"/>
</g>
<!-- Node8 -->
<g id="node8" class="node">
<title>Node8</title>
<g id="a_node8"><a xlink:href="strong__types_8h.html" target="_top" xlink:title=" ">
<polygon fill="white" stroke="#666666" points="527.5,-19 412.5,-19 412.5,0 527.5,0 527.5,-19"/>
<text text-anchor="middle" x="470" y="-7" font-family="Helvetica,sans-Serif" font-size="10.00">utilities/strong_types.h</text>
</a>
</g>
</g>
<!-- Node5&#45;&gt;Node8 -->
<g id="edge7" class="edge">
<title>Node5&#45;&gt;Node8</title>
<path fill="none" stroke="#63b8ff" d="M389.42,-54.98C404.45,-46.69 427.54,-33.94 445.16,-24.22"/>
<polygon fill="#63b8ff" stroke="#63b8ff" points="447.23,-27.07 454.3,-19.17 443.85,-20.94 447.23,-27.07"/>
</g>
</g>
</svg>
