<?xml version="1.0" encoding="UTF-8" standalone="no"?>
<!DOCTYPE svg PUBLIC "-//W3C//DTD SVG 1.1//EN"
 "http://www.w3.org/Graphics/SVG/1.1/DTD/svg11.dtd">
<!-- Generated by graphviz version 2.44.1 (20220725.1945)
 -->
<!-- Title: src/sqlite3_client/helpers.cc Pages: 1 -->
<svg width="1284pt" height="203pt"
 viewBox="0.00 0.00 1284.50 203.00" xmlns="http://www.w3.org/2000/svg" xmlns:xlink="http://www.w3.org/1999/xlink">
<g id="graph0" class="graph" transform="scale(1 1) rotate(0) translate(4 199)">
<title>src/sqlite3_client/helpers.cc</title>
<!-- Node1 -->
<g id="node1" class="node">
<title>Node1</title>
<g id="a_node1"><a xlink:title=" ">
<polygon fill="#999999" stroke="#666666" points="898,-195 808,-195 808,-165 898,-165 898,-195"/>
<text text-anchor="start" x="816" y="-183" font-family="Helvetica,sans-Serif" font-size="10.00">src/sqlite3_client</text>
<text text-anchor="middle" x="853" y="-172" font-family="Helvetica,sans-Serif" font-size="10.00">/helpers.cc</text>
</a>
</g>
</g>
<!-- Node2 -->
<g id="node2" class="node">
<title>Node2</title>
<g id="a_node2"><a xlink:href="helpers_8h.html" target="_top" xlink:title=" ">
<polygon fill="white" stroke="#666666" points="297,-129 181,-129 181,-110 297,-110 297,-129"/>
<text text-anchor="middle" x="239" y="-117" font-family="Helvetica,sans-Serif" font-size="10.00">sqlite3_client/helpers.h</text>
</a>
</g>
</g>
<!-- Node1&#45;&gt;Node2 -->
<g id="edge1" class="edge">
<title>Node1&#45;&gt;Node2</title>
<path fill="none" stroke="#63b8ff" d="M807.65,-175.36C715.6,-167.85 500.02,-149.71 307.26,-128.99"/>
<polygon fill="#63b8ff" stroke="#63b8ff" points="307.54,-125.5 297.22,-127.91 306.79,-132.46 307.54,-125.5"/>
</g>
<!-- Node10 -->
<g id="node10" class="node">
<title>Node10</title>
<g id="a_node10"><a xlink:title=" ">
<polygon fill="#e0e0e0" stroke="#999999" points="428.5,-129 315.5,-129 315.5,-110 428.5,-110 428.5,-129"/>
<text text-anchor="middle" x="372" y="-117" font-family="Helvetica,sans-Serif" font-size="10.00">drogon/HttpRequest.h</text>
</a>
</g>
</g>
<!-- Node1&#45;&gt;Node10 -->
<g id="edge9" class="edge">
<title>Node1&#45;&gt;Node10</title>
<path fill="none" stroke="#63b8ff" d="M807.85,-173.68C733.39,-164.89 579.9,-146.64 438.67,-129.07"/>
<polygon fill="#63b8ff" stroke="#63b8ff" points="438.88,-125.57 428.52,-127.81 438.01,-132.52 438.88,-125.57"/>
</g>
<!-- Node11 -->
<g id="node11" class="node">
<title>Node11</title>
<g id="a_node11"><a xlink:title=" ">
<polygon fill="#e0e0e0" stroke="#999999" points="567,-129 447,-129 447,-110 567,-110 567,-129"/>
<text text-anchor="middle" x="507" y="-117" font-family="Helvetica,sans-Serif" font-size="10.00">drogon/HttpResponse.h</text>
</a>
</g>
</g>
<!-- Node1&#45;&gt;Node11 -->
<g id="edge10" class="edge">
<title>Node1&#45;&gt;Node11</title>
<path fill="none" stroke="#63b8ff" d="M807.77,-171.35C746.26,-160.95 636.08,-142.32 567.51,-130.73"/>
<polygon fill="#63b8ff" stroke="#63b8ff" points="567.74,-127.22 557.29,-129 566.57,-134.12 567.74,-127.22"/>
</g>
<!-- Node12 -->
<g id="node12" class="node">
<title>Node12</title>
<g id="a_node12"><a xlink:title=" ">
<polygon fill="#e0e0e0" stroke="#999999" points="705,-129 585,-129 585,-110 705,-110 705,-129"/>
<text text-anchor="middle" x="645" y="-117" font-family="Helvetica,sans-Serif" font-size="10.00">drogon/orm/Exception.h</text>
</a>
</g>
</g>
<!-- Node1&#45;&gt;Node12 -->
<g id="edge11" class="edge">
<title>Node1&#45;&gt;Node12</title>
<path fill="none" stroke="#63b8ff" d="M807.87,-166.31C771.33,-156.03 720.33,-141.69 685.19,-131.8"/>
<polygon fill="#63b8ff" stroke="#63b8ff" points="685.85,-128.35 675.27,-129.01 683.95,-135.09 685.85,-128.35"/>
</g>
<!-- Node13 -->
<g id="node13" class="node">
<title>Node13</title>
<g id="a_node13"><a xlink:title=" ">
<polygon fill="#e0e0e0" stroke="#999999" points="863,-129 723,-129 723,-110 863,-110 863,-129"/>
<text text-anchor="middle" x="793" y="-117" font-family="Helvetica,sans-Serif" font-size="10.00">drogon/utils/FunctionTraits.h</text>
</a>
</g>
</g>
<!-- Node1&#45;&gt;Node13 -->
<g id="edge12" class="edge">
<title>Node1&#45;&gt;Node13</title>
<path fill="none" stroke="#63b8ff" d="M838.48,-164.84C829.68,-156.26 818.43,-145.3 809.33,-136.42"/>
<polygon fill="#63b8ff" stroke="#63b8ff" points="811.59,-133.74 801.99,-129.27 806.71,-138.75 811.59,-133.74"/>
</g>
<!-- Node14 -->
<g id="node14" class="node">
<title>Node14</title>
<g id="a_node14"><a xlink:title=" ">
<polygon fill="#e0e0e0" stroke="#999999" points="944.5,-129 881.5,-129 881.5,-110 944.5,-110 944.5,-129"/>
<text text-anchor="middle" x="913" y="-117" font-family="Helvetica,sans-Serif" font-size="10.00">fmt/color.h</text>
</a>
</g>
</g>
<!-- Node1&#45;&gt;Node14 -->
<g id="edge13" class="edge">
<title>Node1&#45;&gt;Node14</title>
<path fill="none" stroke="#63b8ff" d="M867.52,-164.84C876.32,-156.26 887.57,-145.3 896.67,-136.42"/>
<polygon fill="#63b8ff" stroke="#63b8ff" points="899.29,-138.75 904.01,-129.27 894.41,-133.74 899.29,-138.75"/>
</g>
<!-- Node15 -->
<g id="node15" class="node">
<title>Node15</title>
<g id="a_node15"><a xlink:title=" ">
<polygon fill="#e0e0e0" stroke="#999999" points="1023.5,-129 962.5,-129 962.5,-110 1023.5,-110 1023.5,-129"/>
<text text-anchor="middle" x="993" y="-117" font-family="Helvetica,sans-Serif" font-size="10.00">fmt/core.h</text>
</a>
</g>
</g>
<!-- Node1&#45;&gt;Node15 -->
<g id="edge14" class="edge">
<title>Node1&#45;&gt;Node15</title>
<path fill="none" stroke="#63b8ff" d="M886.53,-164.99C909.79,-155.27 940.49,-142.44 962.95,-133.06"/>
<polygon fill="#63b8ff" stroke="#63b8ff" points="964.45,-136.22 972.32,-129.14 961.75,-129.77 964.45,-136.22"/>
</g>
<!-- Node16 -->
<g id="node16" class="node">
<title>Node16</title>
<g id="a_node16"><a xlink:title=" ">
<polygon fill="#e0e0e0" stroke="#999999" points="1112,-129 1042,-129 1042,-110 1112,-110 1112,-129"/>
<text text-anchor="middle" x="1077" y="-117" font-family="Helvetica,sans-Serif" font-size="10.00">fmt/format.h</text>
</a>
</g>
</g>
<!-- Node1&#45;&gt;Node16 -->
<g id="edge15" class="edge">
<title>Node1&#45;&gt;Node16</title>
<path fill="none" stroke="#63b8ff" d="M898.06,-167.23C937.82,-156.85 995.35,-141.82 1034.36,-131.64"/>
<polygon fill="#63b8ff" stroke="#63b8ff" points="1035.56,-134.94 1044.35,-129.03 1033.79,-128.17 1035.56,-134.94"/>
</g>
<!-- Node17 -->
<g id="node17" class="node">
<title>Node17</title>
<g id="a_node17"><a xlink:title=" ">
<polygon fill="#e0e0e0" stroke="#999999" points="1199.5,-129 1130.5,-129 1130.5,-110 1199.5,-110 1199.5,-129"/>
<text text-anchor="middle" x="1165" y="-117" font-family="Helvetica,sans-Serif" font-size="10.00">json/value.h</text>
</a>
</g>
</g>
<!-- Node1&#45;&gt;Node17 -->
<g id="edge16" class="edge">
<title>Node1&#45;&gt;Node17</title>
<path fill="none" stroke="#63b8ff" d="M898.06,-170.68C949.3,-161.21 1035.75,-145.16 1120.38,-129.11"/>
<polygon fill="#63b8ff" stroke="#63b8ff" points="1121.24,-132.51 1130.42,-127.2 1119.94,-125.63 1121.24,-132.51"/>
</g>
<!-- Node18 -->
<g id="node18" class="node">
<title>Node18</title>
<g id="a_node18"><a xlink:title=" ">
<polygon fill="#e0e0e0" stroke="#999999" points="1276.5,-129 1217.5,-129 1217.5,-110 1276.5,-110 1276.5,-129"/>
<text text-anchor="middle" x="1247" y="-117" font-family="Helvetica,sans-Serif" font-size="10.00">exception</text>
</a>
</g>
</g>
<!-- Node1&#45;&gt;Node18 -->
<g id="edge17" class="edge">
<title>Node1&#45;&gt;Node18</title>
<path fill="none" stroke="#63b8ff" d="M898.14,-173.84C963.99,-166.06 1090.43,-150.14 1207.01,-129.25"/>
<polygon fill="#63b8ff" stroke="#63b8ff" points="1207.96,-132.63 1217.18,-127.41 1206.71,-125.75 1207.96,-132.63"/>
</g>
<!-- Node3 -->
<g id="node3" class="node">
<title>Node3</title>
<g id="a_node3"><a xlink:title=" ">
<polygon fill="#e0e0e0" stroke="#999999" points="102,-74 0,-74 0,-55 102,-55 102,-74"/>
<text text-anchor="middle" x="51" y="-62" font-family="Helvetica,sans-Serif" font-size="10.00">drogon/HttpTypes.h</text>
</a>
</g>
</g>
<!-- Node2&#45;&gt;Node3 -->
<g id="edge2" class="edge">
<title>Node2&#45;&gt;Node3</title>
<path fill="none" stroke="#63b8ff" d="M208.79,-109.98C176.96,-101.01 126.64,-86.82 91.4,-76.89"/>
<polygon fill="#63b8ff" stroke="#63b8ff" points="92.02,-73.43 81.44,-74.08 90.12,-80.16 92.02,-73.43"/>
</g>
<!-- Node4 -->
<g id="node4" class="node">
<title>Node4</title>
<g id="a_node4"><a xlink:title=" ">
<polygon fill="#e0e0e0" stroke="#999999" points="253.5,-74 120.5,-74 120.5,-55 253.5,-55 253.5,-74"/>
<text text-anchor="middle" x="187" y="-62" font-family="Helvetica,sans-Serif" font-size="10.00">drogon/drogon_callbacks.h</text>
</a>
</g>
</g>
<!-- Node2&#45;&gt;Node4 -->
<g id="edge3" class="edge">
<title>Node2&#45;&gt;Node4</title>
<path fill="none" stroke="#63b8ff" d="M230.41,-109.75C222.84,-102.03 211.62,-90.6 202.49,-81.28"/>
<polygon fill="#63b8ff" stroke="#63b8ff" points="204.93,-78.78 195.43,-74.09 199.93,-83.68 204.93,-78.78"/>
</g>
<!-- Node5 -->
<g id="node5" class="node">
<title>Node5</title>
<g id="a_node5"><a xlink:title=" ">
<polygon fill="#e0e0e0" stroke="#999999" points="310,-74 272,-74 272,-55 310,-55 310,-74"/>
<text text-anchor="middle" x="291" y="-62" font-family="Helvetica,sans-Serif" font-size="10.00">tuple</text>
</a>
</g>
</g>
<!-- Node2&#45;&gt;Node5 -->
<g id="edge4" class="edge">
<title>Node2&#45;&gt;Node5</title>
<path fill="none" stroke="#63b8ff" d="M247.59,-109.75C255.16,-102.03 266.38,-90.6 275.51,-81.28"/>
<polygon fill="#63b8ff" stroke="#63b8ff" points="278.07,-83.68 282.57,-74.09 273.07,-78.78 278.07,-83.68"/>
</g>
<!-- Node6 -->
<g id="node6" class="node">
<title>Node6</title>
<g id="a_node6"><a xlink:href="minpass__types_8h.html" target="_top" xlink:title=" ">
<polygon fill="white" stroke="#666666" points="419.5,-74 328.5,-74 328.5,-55 419.5,-55 419.5,-74"/>
<text text-anchor="middle" x="374" y="-62" font-family="Helvetica,sans-Serif" font-size="10.00">minpass_types.h</text>
</a>
</g>
</g>
<!-- Node2&#45;&gt;Node6 -->
<g id="edge5" class="edge">
<title>Node2&#45;&gt;Node6</title>
<path fill="none" stroke="#63b8ff" d="M260.69,-109.98C282.8,-101.3 317.32,-87.75 342.45,-77.88"/>
<polygon fill="#63b8ff" stroke="#63b8ff" points="343.89,-81.08 351.92,-74.17 341.33,-74.57 343.89,-81.08"/>
</g>
<!-- Node7 -->
<g id="node7" class="node">
<title>Node7</title>
<g id="a_node7"><a xlink:title=" ">
<polygon fill="#e0e0e0" stroke="#999999" points="335,-19 283,-19 283,0 335,0 335,-19"/>
<text text-anchor="middle" x="309" y="-7" font-family="Helvetica,sans-Serif" font-size="10.00">sstream</text>
</a>
</g>
</g>
<!-- Node6&#45;&gt;Node7 -->
<g id="edge6" class="edge">
<title>Node6&#45;&gt;Node7</title>
<path fill="none" stroke="#63b8ff" d="M363.56,-54.98C353.85,-47.07 339.18,-35.11 327.5,-25.58"/>
<polygon fill="#63b8ff" stroke="#63b8ff" points="329.6,-22.78 319.63,-19.17 325.17,-28.2 329.6,-22.78"/>
</g>
<!-- Node8 -->
<g id="node8" class="node">
<title>Node8</title>
<g id="a_node8"><a xlink:title=" ">
<polygon fill="#e0e0e0" stroke="#999999" points="394.5,-19 353.5,-19 353.5,0 394.5,0 394.5,-19"/>
<text text-anchor="middle" x="374" y="-7" font-family="Helvetica,sans-Serif" font-size="10.00">string</text>
</a>
</g>
</g>
<!-- Node6&#45;&gt;Node8 -->
<g id="edge7" class="edge">
<title>Node6&#45;&gt;Node8</title>
<path fill="none" stroke="#63b8ff" d="M374,-54.75C374,-47.8 374,-37.85 374,-29.13"/>
<polygon fill="#63b8ff" stroke="#63b8ff" points="377.5,-29.09 374,-19.09 370.5,-29.09 377.5,-29.09"/>
</g>
<!-- Node9 -->
<g id="node9" class="node">
<title>Node9</title>
<g id="a_node9"><a xlink:href="strong__types_8h.html" target="_top" xlink:title=" ">
<polygon fill="white" stroke="#666666" points="527.5,-19 412.5,-19 412.5,0 527.5,0 527.5,-19"/>
<text text-anchor="middle" x="470" y="-7" font-family="Helvetica,sans-Serif" font-size="10.00">utilities/strong_types.h</text>
</a>
</g>
</g>
<!-- Node6&#45;&gt;Node9 -->
<g id="edge8" class="edge">
<title>Node6&#45;&gt;Node9</title>
<path fill="none" stroke="#63b8ff" d="M389.42,-54.98C404.45,-46.69 427.54,-33.94 445.16,-24.22"/>
<polygon fill="#63b8ff" stroke="#63b8ff" points="447.23,-27.07 454.3,-19.17 443.85,-20.94 447.23,-27.07"/>
</g>
</g>
</svg>
