<?xml version="1.0" encoding="UTF-8" standalone="no"?>
<!DOCTYPE svg PUBLIC "-//W3C//DTD SVG 1.1//EN"
 "http://www.w3.org/Graphics/SVG/1.1/DTD/svg11.dtd">
<!-- Generated by graphviz version 2.44.1 (20220725.1945)
 -->
<!-- Title: src/main.cc Pages: 1 -->
<svg width="1036pt" height="192pt"
 viewBox="0.00 0.00 1035.50 192.00" xmlns="http://www.w3.org/2000/svg" xmlns:xlink="http://www.w3.org/1999/xlink">
<g id="graph0" class="graph" transform="scale(1 1) rotate(0) translate(4 188)">
<title>src/main.cc</title>
<!-- Node1 -->
<g id="node1" class="node">
<title>Node1</title>
<g id="a_node1"><a xlink:title=" ">
<polygon fill="#999999" stroke="#666666" points="448,-184 380,-184 380,-165 448,-165 448,-184"/>
<text text-anchor="middle" x="414" y="-172" font-family="Helvetica,sans-Serif" font-size="10.00">src/main.cc</text>
</a>
</g>
</g>
<!-- Node2 -->
<g id="node2" class="node">
<title>Node2</title>
<g id="a_node2"><a xlink:title=" ">
<polygon fill="#e0e0e0" stroke="#999999" points="330,-129 188,-129 188,-110 330,-110 330,-129"/>
<text text-anchor="middle" x="259" y="-117" font-family="Helvetica,sans-Serif" font-size="10.00">drogon/HttpAppFramework.h</text>
</a>
</g>
</g>
<!-- Node1&#45;&gt;Node2 -->
<g id="edge1" class="edge">
<title>Node1&#45;&gt;Node2</title>
<path fill="none" stroke="#63b8ff" d="M389.1,-164.98C363.3,-156.16 322.78,-142.31 293.82,-132.41"/>
<polygon fill="#63b8ff" stroke="#63b8ff" points="294.69,-129.01 284.1,-129.08 292.43,-135.63 294.69,-129.01"/>
</g>
<!-- Node3 -->
<g id="node3" class="node">
<title>Node3</title>
<g id="a_node3"><a xlink:title=" ">
<polygon fill="#e0e0e0" stroke="#999999" points="409.5,-129 348.5,-129 348.5,-110 409.5,-110 409.5,-129"/>
<text text-anchor="middle" x="379" y="-117" font-family="Helvetica,sans-Serif" font-size="10.00">fmt/core.h</text>
</a>
</g>
</g>
<!-- Node1&#45;&gt;Node3 -->
<g id="edge2" class="edge">
<title>Node1&#45;&gt;Node3</title>
<path fill="none" stroke="#63b8ff" d="M408.22,-164.75C403.38,-157.42 396.32,-146.73 390.36,-137.7"/>
<polygon fill="#63b8ff" stroke="#63b8ff" points="393.1,-135.5 384.67,-129.09 387.26,-139.36 393.1,-135.5"/>
</g>
<!-- Node4 -->
<g id="node4" class="node">
<title>Node4</title>
<g id="a_node4"><a xlink:title=" ">
<polygon fill="#e0e0e0" stroke="#999999" points="472.5,-129 427.5,-129 427.5,-110 472.5,-110 472.5,-129"/>
<text text-anchor="middle" x="450" y="-117" font-family="Helvetica,sans-Serif" font-size="10.00">cstdlib</text>
</a>
</g>
</g>
<!-- Node1&#45;&gt;Node4 -->
<g id="edge3" class="edge">
<title>Node1&#45;&gt;Node4</title>
<path fill="none" stroke="#63b8ff" d="M419.94,-164.75C424.98,-157.34 432.34,-146.5 438.51,-137.41"/>
<polygon fill="#63b8ff" stroke="#63b8ff" points="441.44,-139.33 444.17,-129.09 435.65,-135.39 441.44,-139.33"/>
</g>
<!-- Node5 -->
<g id="node5" class="node">
<title>Node5</title>
<g id="a_node5"><a xlink:href="sqlite3__client_8h.html" target="_top" xlink:title=" ">
<polygon fill="white" stroke="#666666" points="573,-129 491,-129 491,-110 573,-110 573,-129"/>
<text text-anchor="middle" x="532" y="-117" font-family="Helvetica,sans-Serif" font-size="10.00">sqlite3_client.h</text>
</a>
</g>
</g>
<!-- Node1&#45;&gt;Node5 -->
<g id="edge4" class="edge">
<title>Node1&#45;&gt;Node5</title>
<path fill="none" stroke="#63b8ff" d="M432.96,-164.98C452.03,-156.42 481.66,-143.11 503.55,-133.28"/>
<polygon fill="#63b8ff" stroke="#63b8ff" points="505.01,-136.46 512.7,-129.17 502.14,-130.07 505.01,-136.46"/>
</g>
<!-- Node6 -->
<g id="node6" class="node">
<title>Node6</title>
<g id="a_node6"><a xlink:title=" ">
<polygon fill="#e0e0e0" stroke="#999999" points="118,-74 0,-74 0,-55 118,-55 118,-74"/>
<text text-anchor="middle" x="59" y="-62" font-family="Helvetica,sans-Serif" font-size="10.00">drogon/HttpController.h</text>
</a>
</g>
</g>
<!-- Node5&#45;&gt;Node6 -->
<g id="edge5" class="edge">
<title>Node5&#45;&gt;Node6</title>
<path fill="none" stroke="#63b8ff" d="M490.84,-111.41C487.51,-110.91 484.2,-110.43 481,-110 327.47,-89.42 285.83,-91.7 128.37,-74.13"/>
<polygon fill="#63b8ff" stroke="#63b8ff" points="128.66,-70.64 118.33,-73 127.87,-77.59 128.66,-70.64"/>
</g>
<!-- Node7 -->
<g id="node7" class="node">
<title>Node7</title>
<g id="a_node7"><a xlink:title=" ">
<polygon fill="#e0e0e0" stroke="#999999" points="256,-74 136,-74 136,-55 256,-55 256,-74"/>
<text text-anchor="middle" x="196" y="-62" font-family="Helvetica,sans-Serif" font-size="10.00">drogon/HttpResponse.h</text>
</a>
</g>
</g>
<!-- Node5&#45;&gt;Node7 -->
<g id="edge6" class="edge">
<title>Node5&#45;&gt;Node7</title>
<path fill="none" stroke="#63b8ff" d="M490.81,-111.6C487.49,-111.05 484.19,-110.51 481,-110 405.91,-97.88 319.6,-84.48 261.82,-75.58"/>
<polygon fill="#63b8ff" stroke="#63b8ff" points="262.15,-72.09 251.73,-74.03 261.08,-79.01 262.15,-72.09"/>
</g>
<!-- Node8 -->
<g id="node8" class="node">
<title>Node8</title>
<g id="a_node8"><a xlink:title=" ">
<polygon fill="#e0e0e0" stroke="#999999" points="376,-74 274,-74 274,-55 376,-55 376,-74"/>
<text text-anchor="middle" x="325" y="-62" font-family="Helvetica,sans-Serif" font-size="10.00">drogon/HttpTypes.h</text>
</a>
</g>
</g>
<!-- Node5&#45;&gt;Node8 -->
<g id="edge7" class="edge">
<title>Node5&#45;&gt;Node8</title>
<path fill="none" stroke="#63b8ff" d="M498.74,-109.98C463.39,-100.93 407.33,-86.58 368.49,-76.64"/>
<polygon fill="#63b8ff" stroke="#63b8ff" points="369.07,-73.17 358.52,-74.08 367.34,-79.95 369.07,-73.17"/>
</g>
<!-- Node9 -->
<g id="node9" class="node">
<title>Node9</title>
<g id="a_node9"><a xlink:title=" ">
<polygon fill="#e0e0e0" stroke="#999999" points="527.5,-74 394.5,-74 394.5,-55 527.5,-55 527.5,-74"/>
<text text-anchor="middle" x="461" y="-62" font-family="Helvetica,sans-Serif" font-size="10.00">drogon/drogon_callbacks.h</text>
</a>
</g>
</g>
<!-- Node5&#45;&gt;Node9 -->
<g id="edge8" class="edge">
<title>Node5&#45;&gt;Node9</title>
<path fill="none" stroke="#63b8ff" d="M520.59,-109.98C509.89,-102 493.66,-89.88 480.84,-80.31"/>
<polygon fill="#63b8ff" stroke="#63b8ff" points="482.72,-77.35 472.61,-74.17 478.53,-82.96 482.72,-77.35"/>
</g>
<!-- Node10 -->
<g id="node10" class="node">
<title>Node10</title>
<g id="a_node10"><a xlink:title=" ">
<polygon fill="#e0e0e0" stroke="#999999" points="660.5,-74 545.5,-74 545.5,-55 660.5,-55 660.5,-74"/>
<text text-anchor="middle" x="603" y="-62" font-family="Helvetica,sans-Serif" font-size="10.00">drogon/orm/DbClient.h</text>
</a>
</g>
</g>
<!-- Node5&#45;&gt;Node10 -->
<g id="edge9" class="edge">
<title>Node5&#45;&gt;Node10</title>
<path fill="none" stroke="#63b8ff" d="M543.41,-109.98C554.11,-102 570.34,-89.88 583.16,-80.31"/>
<polygon fill="#63b8ff" stroke="#63b8ff" points="585.47,-82.96 591.39,-74.17 581.28,-77.35 585.47,-82.96"/>
</g>
<!-- Node11 -->
<g id="node11" class="node">
<title>Node11</title>
<g id="a_node11"><a xlink:title=" ">
<polygon fill="#e0e0e0" stroke="#999999" points="737.5,-74 678.5,-74 678.5,-55 737.5,-55 737.5,-74"/>
<text text-anchor="middle" x="708" y="-62" font-family="Helvetica,sans-Serif" font-size="10.00">functional</text>
</a>
</g>
</g>
<!-- Node5&#45;&gt;Node11 -->
<g id="edge10" class="edge">
<title>Node5&#45;&gt;Node11</title>
<path fill="none" stroke="#63b8ff" d="M560.28,-109.98C589.95,-101.05 636.79,-86.94 669.75,-77.02"/>
<polygon fill="#63b8ff" stroke="#63b8ff" points="670.93,-80.32 679.5,-74.08 668.92,-73.61 670.93,-80.32"/>
</g>
<!-- Node12 -->
<g id="node12" class="node">
<title>Node12</title>
<g id="a_node12"><a xlink:title=" ">
<polygon fill="#e0e0e0" stroke="#999999" points="810,-74 756,-74 756,-55 810,-55 810,-74"/>
<text text-anchor="middle" x="783" y="-62" font-family="Helvetica,sans-Serif" font-size="10.00">iostream</text>
</a>
</g>
</g>
<!-- Node5&#45;&gt;Node12 -->
<g id="edge11" class="edge">
<title>Node5&#45;&gt;Node12</title>
<path fill="none" stroke="#63b8ff" d="M573.08,-110.22C616.2,-101.47 685.95,-87.14 746,-74 746.1,-73.98 746.2,-73.96 746.3,-73.93"/>
<polygon fill="#63b8ff" stroke="#63b8ff" points="746.94,-77.38 755.94,-71.79 745.41,-70.55 746.94,-77.38"/>
</g>
<!-- Node13 -->
<g id="node13" class="node">
<title>Node13</title>
<g id="a_node13"><a xlink:href="minpass__types_8h.html" target="_top" xlink:title=" ">
<polygon fill="white" stroke="#666666" points="919.5,-74 828.5,-74 828.5,-55 919.5,-55 919.5,-74"/>
<text text-anchor="middle" x="874" y="-62" font-family="Helvetica,sans-Serif" font-size="10.00">minpass_types.h</text>
</a>
</g>
</g>
<!-- Node5&#45;&gt;Node13 -->
<g id="edge12" class="edge">
<title>Node5&#45;&gt;Node13</title>
<path fill="none" stroke="#63b8ff" d="M573.25,-112.11C634.43,-102.63 749.34,-84.82 818.04,-74.17"/>
<polygon fill="#63b8ff" stroke="#63b8ff" points="818.9,-77.58 828.25,-72.59 817.83,-70.66 818.9,-77.58"/>
</g>
<!-- Node14 -->
<g id="node14" class="node">
<title>Node14</title>
<g id="a_node14"><a xlink:title=" ">
<polygon fill="#e0e0e0" stroke="#999999" points="835,-19 783,-19 783,0 835,0 835,-19"/>
<text text-anchor="middle" x="809" y="-7" font-family="Helvetica,sans-Serif" font-size="10.00">sstream</text>
</a>
</g>
</g>
<!-- Node13&#45;&gt;Node14 -->
<g id="edge13" class="edge">
<title>Node13&#45;&gt;Node14</title>
<path fill="none" stroke="#63b8ff" d="M863.56,-54.98C853.85,-47.07 839.18,-35.11 827.5,-25.58"/>
<polygon fill="#63b8ff" stroke="#63b8ff" points="829.6,-22.78 819.63,-19.17 825.17,-28.2 829.6,-22.78"/>
</g>
<!-- Node15 -->
<g id="node15" class="node">
<title>Node15</title>
<g id="a_node15"><a xlink:title=" ">
<polygon fill="#e0e0e0" stroke="#999999" points="894.5,-19 853.5,-19 853.5,0 894.5,0 894.5,-19"/>
<text text-anchor="middle" x="874" y="-7" font-family="Helvetica,sans-Serif" font-size="10.00">string</text>
</a>
</g>
</g>
<!-- Node13&#45;&gt;Node15 -->
<g id="edge14" class="edge">
<title>Node13&#45;&gt;Node15</title>
<path fill="none" stroke="#63b8ff" d="M874,-54.75C874,-47.8 874,-37.85 874,-29.13"/>
<polygon fill="#63b8ff" stroke="#63b8ff" points="877.5,-29.09 874,-19.09 870.5,-29.09 877.5,-29.09"/>
</g>
<!-- Node16 -->
<g id="node16" class="node">
<title>Node16</title>
<g id="a_node16"><a xlink:href="strong__types_8h.html" target="_top" xlink:title=" ">
<polygon fill="white" stroke="#666666" points="1027.5,-19 912.5,-19 912.5,0 1027.5,0 1027.5,-19"/>
<text text-anchor="middle" x="970" y="-7" font-family="Helvetica,sans-Serif" font-size="10.00">utilities/strong_types.h</text>
</a>
</g>
</g>
<!-- Node13&#45;&gt;Node16 -->
<g id="edge15" class="edge">
<title>Node13&#45;&gt;Node16</title>
<path fill="none" stroke="#63b8ff" d="M889.42,-54.98C904.45,-46.69 927.54,-33.94 945.16,-24.22"/>
<polygon fill="#63b8ff" stroke="#63b8ff" points="947.23,-27.07 954.3,-19.17 943.85,-20.94 947.23,-27.07"/>
</g>
</g>
</svg>
