<?xml version="1.0" encoding="UTF-8" standalone="no"?>
<!DOCTYPE svg PUBLIC "-//W3C//DTD SVG 1.1//EN"
 "http://www.w3.org/Graphics/SVG/1.1/DTD/svg11.dtd">
<!-- Generated by graphviz version 2.44.1 (20220725.1945)
 -->
<!-- Title: main Pages: 1 -->
<svg width="142pt" height="66pt"
 viewBox="0.00 0.00 142.00 66.00" xmlns="http://www.w3.org/2000/svg" xmlns:xlink="http://www.w3.org/1999/xlink">
<g id="graph0" class="graph" transform="scale(1 1) rotate(0) translate(4 62)">
<title>main</title>
<!-- Node1 -->
<g id="node1" class="node">
<title>Node1</title>
<g id="a_node1"><a xlink:title=" ">
<polygon fill="#bfbfbf" stroke="black" points="0,-19.5 0,-38.5 38,-38.5 38,-19.5 0,-19.5"/>
<text text-anchor="middle" x="19" y="-26.5" font-family="Helvetica,sans-Serif" font-size="10.00">main</text>
</a>
</g>
</g>
<!-- Node2 -->
<g id="node2" class="node">
<title>Node2</title>
<g id="a_node2"><a xlink:href="main_8cc.html#a29d3ed63d19b6873da61dd12f5385266" target="_top" xlink:title="a test function to test doxygen">
<polygon fill="none" stroke="black" points="88,-38.5 88,-57.5 120,-57.5 120,-38.5 88,-38.5"/>
<text text-anchor="middle" x="104" y="-45.5" font-family="Helvetica,sans-Serif" font-size="10.00">add</text>
</a>
</g>
</g>
<!-- Node1&#45;&gt;Node2 -->
<g id="edge1" class="edge">
<title>Node1&#45;&gt;Node2</title>
<path fill="none" stroke="midnightblue" d="M38.01,-33.12C49.63,-35.78 64.92,-39.28 77.74,-42.22"/>
<polygon fill="midnightblue" stroke="midnightblue" points="77.28,-45.7 87.81,-44.52 78.84,-38.88 77.28,-45.7"/>
</g>
<!-- Node3 -->
<g id="node3" class="node">
<title>Node3</title>
<g id="a_node3"><a xlink:href="namespacesum.html#ab433fef582a473d78bd8d7921d7fd060" target="_top" xlink:title=" ">
<polygon fill="none" stroke="black" points="74,-0.5 74,-19.5 134,-19.5 134,-0.5 74,-0.5"/>
<text text-anchor="middle" x="104" y="-7.5" font-family="Helvetica,sans-Serif" font-size="10.00">sum::sum</text>
</a>
</g>
</g>
<!-- Node1&#45;&gt;Node3 -->
<g id="edge2" class="edge">
<title>Node1&#45;&gt;Node3</title>
<path fill="none" stroke="midnightblue" d="M38.01,-24.88C45.71,-23.11 55.03,-20.98 64.17,-18.89"/>
<polygon fill="midnightblue" stroke="midnightblue" points="64.96,-22.3 73.93,-16.65 63.4,-15.47 64.96,-22.3"/>
</g>
</g>
</svg>
