<?xml version="1.0" encoding="UTF-8" standalone="no"?>
<!DOCTYPE svg PUBLIC "-//W3C//DTD SVG 1.1//EN"
 "http://www.w3.org/Graphics/SVG/1.1/DTD/svg11.dtd">
<!-- Generated by graphviz version 2.44.1 (20220725.1945)
 -->
<!-- Title: include/minpass_crypto.h Pages: 1 -->
<svg width="446pt" height="148pt"
 viewBox="0.00 0.00 446.50 148.00" xmlns="http://www.w3.org/2000/svg" xmlns:xlink="http://www.w3.org/1999/xlink">
<g id="graph0" class="graph" transform="scale(1 1) rotate(0) translate(4 144)">
<title>include/minpass_crypto.h</title>
<!-- Node1 -->
<g id="node1" class="node">
<title>Node1</title>
<g id="a_node1"><a xlink:title=" ">
<polygon fill="#999999" stroke="#666666" points="244,-140 116,-140 116,-121 244,-121 244,-140"/>
<text text-anchor="middle" x="180" y="-128" font-family="Helvetica,sans-Serif" font-size="10.00">include/minpass_crypto.h</text>
</a>
</g>
</g>
<!-- Node2 -->
<g id="node2" class="node">
<title>Node2</title>
<g id="a_node2"><a xlink:href="aes__gcm__256_8h.html" target="_top" xlink:title=" ">
<polygon fill="white" stroke="#666666" points="104,-85 0,-85 0,-55 104,-55 104,-85"/>
<text text-anchor="start" x="8" y="-73" font-family="Helvetica,sans-Serif" font-size="10.00">minpass_crypto/aes</text>
<text text-anchor="middle" x="52" y="-62" font-family="Helvetica,sans-Serif" font-size="10.00">_gcm_256.h</text>
</a>
</g>
</g>
<!-- Node1&#45;&gt;Node2 -->
<g id="edge1" class="edge">
<title>Node1&#45;&gt;Node2</title>
<path fill="none" stroke="#63b8ff" d="M161.39,-120.99C143.35,-112.75 115.4,-99.98 92.27,-89.4"/>
<polygon fill="#63b8ff" stroke="#63b8ff" points="93.57,-86.15 83.02,-85.18 90.66,-92.52 93.57,-86.15"/>
</g>
<!-- Node3 -->
<g id="node3" class="node">
<title>Node3</title>
<g id="a_node3"><a xlink:href="crytopp__conversions_8h.html" target="_top" xlink:title=" ">
<polygon fill="white" stroke="#666666" points="377.5,-85 256.5,-85 256.5,-55 377.5,-55 377.5,-85"/>
<text text-anchor="start" x="264.5" y="-73" font-family="Helvetica,sans-Serif" font-size="10.00">minpass_crypto/crytopp</text>
<text text-anchor="middle" x="317" y="-62" font-family="Helvetica,sans-Serif" font-size="10.00">_conversions.h</text>
</a>
</g>
</g>
<!-- Node1&#45;&gt;Node3 -->
<g id="edge2" class="edge">
<title>Node1&#45;&gt;Node3</title>
<path fill="none" stroke="#63b8ff" d="M199.92,-120.99C219.47,-112.65 249.88,-99.66 274.81,-89.02"/>
<polygon fill="#63b8ff" stroke="#63b8ff" points="276.24,-92.21 284.06,-85.06 273.49,-85.77 276.24,-92.21"/>
</g>
<!-- Node8 -->
<g id="node8" class="node">
<title>Node8</title>
<g id="a_node8"><a xlink:href="scrypt__kdf_8h.html" target="_top" xlink:title=" ">
<polygon fill="white" stroke="#666666" points="238,-85 122,-85 122,-55 238,-55 238,-85"/>
<text text-anchor="start" x="130" y="-73" font-family="Helvetica,sans-Serif" font-size="10.00">minpass_crypto/scrypt</text>
<text text-anchor="middle" x="180" y="-62" font-family="Helvetica,sans-Serif" font-size="10.00">_kdf.h</text>
</a>
</g>
</g>
<!-- Node1&#45;&gt;Node8 -->
<g id="edge7" class="edge">
<title>Node1&#45;&gt;Node8</title>
<path fill="none" stroke="#63b8ff" d="M180,-120.87C180,-114.11 180,-104.35 180,-95.26"/>
<polygon fill="#63b8ff" stroke="#63b8ff" points="183.5,-95.11 180,-85.11 176.5,-95.11 183.5,-95.11"/>
</g>
<!-- Node4 -->
<g id="node4" class="node">
<title>Node4</title>
<g id="a_node4"><a xlink:title=" ">
<polygon fill="#e0e0e0" stroke="#999999" points="194.5,-19 87.5,-19 87.5,0 194.5,0 194.5,-19"/>
<text text-anchor="middle" x="141" y="-7" font-family="Helvetica,sans-Serif" font-size="10.00">cryptopp/config_int.h</text>
</a>
</g>
</g>
<!-- Node3&#45;&gt;Node4 -->
<g id="edge3" class="edge">
<title>Node3&#45;&gt;Node4</title>
<path fill="none" stroke="#63b8ff" d="M274.84,-54.99C244.73,-44.98 204.69,-31.67 176.27,-22.22"/>
<polygon fill="#63b8ff" stroke="#63b8ff" points="177.33,-18.89 166.73,-19.05 175.12,-25.53 177.33,-18.89"/>
</g>
<!-- Node5 -->
<g id="node5" class="node">
<title>Node5</title>
<g id="a_node5"><a xlink:title=" ">
<polygon fill="#e0e0e0" stroke="#999999" points="317,-19 213,-19 213,0 317,0 317,-19"/>
<text text-anchor="middle" x="265" y="-7" font-family="Helvetica,sans-Serif" font-size="10.00">cryptopp/secblock.h</text>
</a>
</g>
</g>
<!-- Node3&#45;&gt;Node5 -->
<g id="edge4" class="edge">
<title>Node3&#45;&gt;Node5</title>
<path fill="none" stroke="#63b8ff" d="M304.41,-54.84C296.94,-46.43 287.44,-35.74 279.63,-26.96"/>
<polygon fill="#63b8ff" stroke="#63b8ff" points="282.05,-24.41 272.79,-19.27 276.82,-29.07 282.05,-24.41"/>
</g>
<!-- Node6 -->
<g id="node6" class="node">
<title>Node6</title>
<g id="a_node6"><a xlink:title=" ">
<polygon fill="#e0e0e0" stroke="#999999" points="438.5,-19 397.5,-19 397.5,0 438.5,0 438.5,-19"/>
<text text-anchor="middle" x="418" y="-7" font-family="Helvetica,sans-Serif" font-size="10.00">string</text>
</a>
</g>
</g>
<!-- Node3&#45;&gt;Node6 -->
<g id="edge5" class="edge">
<title>Node3&#45;&gt;Node6</title>
<path fill="none" stroke="#63b8ff" d="M341.19,-54.99C357.29,-45.66 378.34,-33.47 394.33,-24.21"/>
<polygon fill="#63b8ff" stroke="#63b8ff" points="396.19,-27.18 403.08,-19.14 392.68,-21.12 396.19,-27.18"/>
</g>
<!-- Node7 -->
<g id="node7" class="node">
<title>Node7</title>
<g id="a_node7"><a xlink:title=" ">
<polygon fill="#e0e0e0" stroke="#999999" points="379,-19 335,-19 335,0 379,0 379,-19"/>
<text text-anchor="middle" x="357" y="-7" font-family="Helvetica,sans-Serif" font-size="10.00">vector</text>
</a>
</g>
</g>
<!-- Node3&#45;&gt;Node7 -->
<g id="edge6" class="edge">
<title>Node3&#45;&gt;Node7</title>
<path fill="none" stroke="#63b8ff" d="M326.68,-54.84C332.25,-46.69 339.29,-36.4 345.18,-27.78"/>
<polygon fill="#63b8ff" stroke="#63b8ff" points="348.25,-29.5 351.01,-19.27 342.47,-25.55 348.25,-29.5"/>
</g>
<!-- Node8&#45;&gt;Node4 -->
<g id="edge8" class="edge">
<title>Node8&#45;&gt;Node4</title>
<path fill="none" stroke="#63b8ff" d="M170.56,-54.84C165.13,-46.69 158.27,-36.4 152.52,-27.78"/>
<polygon fill="#63b8ff" stroke="#63b8ff" points="155.3,-25.65 146.84,-19.27 149.48,-29.53 155.3,-25.65"/>
</g>
<!-- Node8&#45;&gt;Node5 -->
<g id="edge9" class="edge">
<title>Node8&#45;&gt;Node5</title>
<path fill="none" stroke="#63b8ff" d="M200.58,-54.84C213.67,-45.83 230.59,-34.18 243.8,-25.09"/>
<polygon fill="#63b8ff" stroke="#63b8ff" points="246.01,-27.82 252.26,-19.27 242.04,-22.05 246.01,-27.82"/>
</g>
<!-- Node8&#45;&gt;Node7 -->
<g id="edge11" class="edge">
<title>Node8&#45;&gt;Node7</title>
<path fill="none" stroke="#63b8ff" d="M222.4,-54.99C254.05,-44.53 296.62,-30.46 325.34,-20.96"/>
<polygon fill="#63b8ff" stroke="#63b8ff" points="326.49,-24.27 334.89,-17.81 324.29,-17.62 326.49,-24.27"/>
</g>
<!-- Node9 -->
<g id="node9" class="node">
<title>Node9</title>
<g id="a_node9"><a xlink:title=" ">
<polygon fill="#e0e0e0" stroke="#999999" points="69,-19 31,-19 31,0 69,0 69,-19"/>
<text text-anchor="middle" x="50" y="-7" font-family="Helvetica,sans-Serif" font-size="10.00">tuple</text>
</a>
</g>
</g>
<!-- Node8&#45;&gt;Node9 -->
<g id="edge10" class="edge">
<title>Node8&#45;&gt;Node9</title>
<path fill="none" stroke="#63b8ff" d="M148.86,-54.99C127.46,-45.36 99.27,-32.67 78.47,-23.31"/>
<polygon fill="#63b8ff" stroke="#63b8ff" points="79.75,-20.05 69.2,-19.14 76.88,-26.43 79.75,-20.05"/>
</g>
</g>
</svg>
