<?xml version="1.0" encoding="UTF-8" standalone="no"?>
<!DOCTYPE svg PUBLIC "-//W3C//DTD SVG 1.1//EN"
 "http://www.w3.org/Graphics/SVG/1.1/DTD/svg11.dtd">
<!-- Generated by graphviz version 2.44.1 (20220725.1945)
 -->
<!-- Title: src/minpass_crypto/scrypt_kdf.cc Pages: 1 -->
<svg width="622pt" height="159pt"
 viewBox="0.00 0.00 622.50 159.00" xmlns="http://www.w3.org/2000/svg" xmlns:xlink="http://www.w3.org/1999/xlink">
<g id="graph0" class="graph" transform="scale(1 1) rotate(0) translate(4 155)">
<title>src/minpass_crypto/scrypt_kdf.cc</title>
<!-- Node1 -->
<g id="node1" class="node">
<title>Node1</title>
<g id="a_node1"><a xlink:title=" ">
<polygon fill="#999999" stroke="#666666" points="346.5,-151 244.5,-151 244.5,-121 346.5,-121 346.5,-151"/>
<text text-anchor="start" x="252.5" y="-139" font-family="Helvetica,sans-Serif" font-size="10.00">src/minpass_crypto</text>
<text text-anchor="middle" x="295.5" y="-128" font-family="Helvetica,sans-Serif" font-size="10.00">/scrypt_kdf.cc</text>
</a>
</g>
</g>
<!-- Node2 -->
<g id="node2" class="node">
<title>Node2</title>
<g id="a_node2"><a xlink:href="scrypt__kdf_8h.html" target="_top" xlink:title=" ">
<polygon fill="white" stroke="#666666" points="248.5,-85 132.5,-85 132.5,-55 248.5,-55 248.5,-85"/>
<text text-anchor="start" x="140.5" y="-73" font-family="Helvetica,sans-Serif" font-size="10.00">minpass_crypto/scrypt</text>
<text text-anchor="middle" x="190.5" y="-62" font-family="Helvetica,sans-Serif" font-size="10.00">_kdf.h</text>
</a>
</g>
</g>
<!-- Node1&#45;&gt;Node2 -->
<g id="edge1" class="edge">
<title>Node1&#45;&gt;Node2</title>
<path fill="none" stroke="#63b8ff" d="M272.46,-120.95C257.69,-111.95 238.31,-100.14 222.11,-90.27"/>
<polygon fill="#63b8ff" stroke="#63b8ff" points="223.85,-87.23 213.49,-85.01 220.21,-93.21 223.85,-87.23"/>
</g>
<!-- Node3 -->
<g id="node3" class="node">
<title>Node3</title>
<g id="a_node3"><a xlink:title=" ">
<polygon fill="#e0e0e0" stroke="#999999" points="107,-19 0,-19 0,0 107,0 107,-19"/>
<text text-anchor="middle" x="53.5" y="-7" font-family="Helvetica,sans-Serif" font-size="10.00">cryptopp/config_int.h</text>
</a>
</g>
</g>
<!-- Node1&#45;&gt;Node3 -->
<g id="edge6" class="edge">
<title>Node1&#45;&gt;Node3</title>
<path fill="none" stroke="#63b8ff" d="M244.47,-129.37C206.19,-123.23 153.84,-110.61 114.5,-85 92.13,-70.44 73.94,-45.06 63.41,-28.02"/>
<polygon fill="#63b8ff" stroke="#63b8ff" points="66.23,-25.92 58.13,-19.1 60.21,-29.49 66.23,-25.92"/>
</g>
<!-- Node4 -->
<g id="node4" class="node">
<title>Node4</title>
<g id="a_node4"><a xlink:title=" ">
<polygon fill="#e0e0e0" stroke="#999999" points="229.5,-19 125.5,-19 125.5,0 229.5,0 229.5,-19"/>
<text text-anchor="middle" x="177.5" y="-7" font-family="Helvetica,sans-Serif" font-size="10.00">cryptopp/secblock.h</text>
</a>
</g>
</g>
<!-- Node1&#45;&gt;Node4 -->
<g id="edge9" class="edge">
<title>Node1&#45;&gt;Node4</title>
<path fill="none" stroke="#63b8ff" d="M244.37,-127.03C199.14,-118.81 138.11,-104.46 123.5,-85 115.5,-74.34 117.81,-67.06 123.5,-55 129.51,-42.26 141.16,-31.92 152.11,-24.44"/>
<polygon fill="#63b8ff" stroke="#63b8ff" points="154.04,-27.36 160.61,-19.05 150.29,-21.44 154.04,-27.36"/>
</g>
<!-- Node5 -->
<g id="node5" class="node">
<title>Node5</title>
<g id="a_node5"><a xlink:title=" ">
<polygon fill="#e0e0e0" stroke="#999999" points="285.5,-19 247.5,-19 247.5,0 285.5,0 285.5,-19"/>
<text text-anchor="middle" x="266.5" y="-7" font-family="Helvetica,sans-Serif" font-size="10.00">tuple</text>
</a>
</g>
</g>
<!-- Node1&#45;&gt;Node5 -->
<g id="edge11" class="edge">
<title>Node1&#45;&gt;Node5</title>
<path fill="none" stroke="#63b8ff" d="M292.17,-120.72C286.91,-98.12 276.66,-54.12 270.83,-29.09"/>
<polygon fill="#63b8ff" stroke="#63b8ff" points="274.17,-28.01 268.5,-19.07 267.36,-29.6 274.17,-28.01"/>
</g>
<!-- Node6 -->
<g id="node6" class="node">
<title>Node6</title>
<g id="a_node6"><a xlink:title=" ">
<polygon fill="#e0e0e0" stroke="#999999" points="347.5,-19 303.5,-19 303.5,0 347.5,0 347.5,-19"/>
<text text-anchor="middle" x="325.5" y="-7" font-family="Helvetica,sans-Serif" font-size="10.00">vector</text>
</a>
</g>
</g>
<!-- Node1&#45;&gt;Node6 -->
<g id="edge12" class="edge">
<title>Node1&#45;&gt;Node6</title>
<path fill="none" stroke="#63b8ff" d="M298.94,-120.72C304.39,-98.12 314.99,-54.12 321.02,-29.09"/>
<polygon fill="#63b8ff" stroke="#63b8ff" points="324.49,-29.61 323.44,-19.07 317.69,-27.97 324.49,-29.61"/>
</g>
<!-- Node7 -->
<g id="node7" class="node">
<title>Node7</title>
<g id="a_node7"><a xlink:title=" ">
<polygon fill="#e0e0e0" stroke="#999999" points="432,-79.5 343,-79.5 343,-60.5 432,-60.5 432,-79.5"/>
<text text-anchor="middle" x="387.5" y="-67.5" font-family="Helvetica,sans-Serif" font-size="10.00">cryptopp/osrng.h</text>
</a>
</g>
</g>
<!-- Node1&#45;&gt;Node7 -->
<g id="edge7" class="edge">
<title>Node1&#45;&gt;Node7</title>
<path fill="none" stroke="#63b8ff" d="M315.92,-120.8C331.05,-110.27 351.6,-95.97 366.8,-85.4"/>
<polygon fill="#63b8ff" stroke="#63b8ff" points="368.84,-88.24 375.05,-79.66 364.85,-82.5 368.84,-88.24"/>
</g>
<!-- Node8 -->
<g id="node8" class="node">
<title>Node8</title>
<g id="a_node8"><a xlink:title=" ">
<polygon fill="#e0e0e0" stroke="#999999" points="542.5,-79.5 450.5,-79.5 450.5,-60.5 542.5,-60.5 542.5,-79.5"/>
<text text-anchor="middle" x="496.5" y="-67.5" font-family="Helvetica,sans-Serif" font-size="10.00">cryptopp/scrypt.h</text>
</a>
</g>
</g>
<!-- Node1&#45;&gt;Node8 -->
<g id="edge8" class="edge">
<title>Node1&#45;&gt;Node8</title>
<path fill="none" stroke="#63b8ff" d="M339.61,-120.95C375.64,-109.48 425.96,-93.46 459.81,-82.68"/>
<polygon fill="#63b8ff" stroke="#63b8ff" points="461.28,-85.89 469.75,-79.52 459.16,-79.22 461.28,-85.89"/>
</g>
<!-- Node9 -->
<g id="node9" class="node">
<title>Node9</title>
<g id="a_node9"><a xlink:title=" ">
<polygon fill="#e0e0e0" stroke="#999999" points="614.5,-79.5 560.5,-79.5 560.5,-60.5 614.5,-60.5 614.5,-79.5"/>
<text text-anchor="middle" x="587.5" y="-67.5" font-family="Helvetica,sans-Serif" font-size="10.00">iostream</text>
</a>
</g>
</g>
<!-- Node1&#45;&gt;Node9 -->
<g id="edge10" class="edge">
<title>Node1&#45;&gt;Node9</title>
<path fill="none" stroke="#63b8ff" d="M346.65,-127.76C398.79,-119.74 481.69,-105.22 551.5,-85 553.43,-84.44 555.41,-83.82 557.39,-83.16"/>
<polygon fill="#63b8ff" stroke="#63b8ff" points="558.94,-86.32 567.16,-79.64 556.56,-79.74 558.94,-86.32"/>
</g>
<!-- Node2&#45;&gt;Node3 -->
<g id="edge2" class="edge">
<title>Node2&#45;&gt;Node3</title>
<path fill="none" stroke="#63b8ff" d="M157.69,-54.99C135.03,-45.31 105.15,-32.56 83.2,-23.18"/>
<polygon fill="#63b8ff" stroke="#63b8ff" points="84.3,-19.85 73.73,-19.14 81.55,-26.29 84.3,-19.85"/>
</g>
<!-- Node2&#45;&gt;Node4 -->
<g id="edge3" class="edge">
<title>Node2&#45;&gt;Node4</title>
<path fill="none" stroke="#63b8ff" d="M187.35,-54.84C185.64,-47.13 183.5,-37.49 181.65,-29.17"/>
<polygon fill="#63b8ff" stroke="#63b8ff" points="185.03,-28.27 179.45,-19.27 178.2,-29.79 185.03,-28.27"/>
</g>
<!-- Node2&#45;&gt;Node5 -->
<g id="edge4" class="edge">
<title>Node2&#45;&gt;Node5</title>
<path fill="none" stroke="#63b8ff" d="M208.9,-54.84C220.38,-46 235.15,-34.63 246.86,-25.62"/>
<polygon fill="#63b8ff" stroke="#63b8ff" points="249.32,-28.14 255.11,-19.27 245.05,-22.59 249.32,-28.14"/>
</g>
<!-- Node2&#45;&gt;Node6 -->
<g id="edge5" class="edge">
<title>Node2&#45;&gt;Node6</title>
<path fill="none" stroke="#63b8ff" d="M222.84,-54.99C245.16,-45.31 274.6,-32.56 296.23,-23.18"/>
<polygon fill="#63b8ff" stroke="#63b8ff" points="297.78,-26.33 305.56,-19.14 295,-19.9 297.78,-26.33"/>
</g>
</g>
</svg>
