<?xml version="1.0" encoding="UTF-8" standalone="no"?>
<!DOCTYPE svg PUBLIC "-//W3C//DTD SVG 1.1//EN"
 "http://www.w3.org/Graphics/SVG/1.1/DTD/svg11.dtd">
<!-- Generated by graphviz version 2.44.1 (20220725.1945)
 -->
<!-- Title: include/minpass_crypto/scrypt_kdf.h Pages: 1 -->
<svg width="256pt" height="159pt"
 viewBox="0.00 0.00 256.00 159.00" xmlns="http://www.w3.org/2000/svg" xmlns:xlink="http://www.w3.org/1999/xlink">
<g id="graph0" class="graph" transform="scale(1 1) rotate(0) translate(4 155)">
<title>include/minpass_crypto/scrypt_kdf.h</title>
<!-- Node1 -->
<g id="node1" class="node">
<title>Node1</title>
<g id="a_node1"><a xlink:title=" ">
<polygon fill="#999999" stroke="#666666" points="189.5,-151 70.5,-151 70.5,-121 189.5,-121 189.5,-151"/>
<text text-anchor="start" x="78.5" y="-139" font-family="Helvetica,sans-Serif" font-size="10.00">include/minpass_crypto</text>
<text text-anchor="middle" x="130" y="-128" font-family="Helvetica,sans-Serif" font-size="10.00">/scrypt_kdf.h</text>
</a>
</g>
</g>
<!-- Node2 -->
<g id="node2" class="node">
<title>Node2</title>
<g id="a_node2"><a xlink:href="minpass__crypto_8h.html" target="_top" xlink:title=" ">
<polygon fill="white" stroke="#666666" points="128,-79.5 0,-79.5 0,-60.5 128,-60.5 128,-79.5"/>
<text text-anchor="middle" x="64" y="-67.5" font-family="Helvetica,sans-Serif" font-size="10.00">include/minpass_crypto.h</text>
</a>
</g>
</g>
<!-- Node1&#45;&gt;Node2 -->
<g id="edge1" class="edge">
<title>Node1&#45;&gt;Node2</title>
<path fill="none" stroke="#63b8ff" d="M107.94,-113.6C96.07,-102.1 82.07,-88.52 73.12,-79.84"/>
<polygon fill="#63b8ff" stroke="#63b8ff" points="105.74,-116.35 115.35,-120.8 110.61,-111.32 105.74,-116.35"/>
</g>
<!-- Node4 -->
<g id="node4" class="node">
<title>Node4</title>
<g id="a_node4"><a xlink:href="scrypt__kdf_8cc.html" target="_top" xlink:title=" ">
<polygon fill="white" stroke="#666666" points="248,-85 146,-85 146,-55 248,-55 248,-85"/>
<text text-anchor="start" x="154" y="-73" font-family="Helvetica,sans-Serif" font-size="10.00">src/minpass_crypto</text>
<text text-anchor="middle" x="197" y="-62" font-family="Helvetica,sans-Serif" font-size="10.00">/scrypt_kdf.cc</text>
</a>
</g>
</g>
<!-- Node1&#45;&gt;Node4 -->
<g id="edge3" class="edge">
<title>Node1&#45;&gt;Node4</title>
<path fill="none" stroke="#63b8ff" d="M152.35,-113.65C162.17,-104.27 173.42,-93.53 182.17,-85.16"/>
<polygon fill="#63b8ff" stroke="#63b8ff" points="149.68,-111.36 144.87,-120.8 154.52,-116.42 149.68,-111.36"/>
</g>
<!-- Node3 -->
<g id="node3" class="node">
<title>Node3</title>
<g id="a_node3"><a xlink:href="minpass__crypto_8cc.html" target="_top" xlink:title=" ">
<polygon fill="white" stroke="#666666" points="122,-19 6,-19 6,0 122,0 122,-19"/>
<text text-anchor="middle" x="64" y="-7" font-family="Helvetica,sans-Serif" font-size="10.00">src/minpass_crypto.cc</text>
</a>
</g>
</g>
<!-- Node2&#45;&gt;Node3 -->
<g id="edge2" class="edge">
<title>Node2&#45;&gt;Node3</title>
<path fill="none" stroke="#63b8ff" d="M64,-50.16C64,-39.74 64,-27.3 64,-19.17"/>
<polygon fill="#63b8ff" stroke="#63b8ff" points="60.5,-50.37 64,-60.37 67.5,-50.37 60.5,-50.37"/>
</g>
</g>
</svg>
