<?xml version="1.0" encoding="UTF-8" standalone="no"?>
<!DOCTYPE svg PUBLIC "-//W3C//DTD SVG 1.1//EN"
 "http://www.w3.org/Graphics/SVG/1.1/DTD/svg11.dtd">
<!-- Generated by graphviz version 2.44.1 (20220725.1945)
 -->
<!-- Title: include/sqlite3_client.h Pages: 1 -->
<svg width="1036pt" height="137pt"
 viewBox="0.00 0.00 1035.50 137.00" xmlns="http://www.w3.org/2000/svg" xmlns:xlink="http://www.w3.org/1999/xlink">
<g id="graph0" class="graph" transform="scale(1 1) rotate(0) translate(4 133)">
<title>include/sqlite3_client.h</title>
<!-- Node1 -->
<g id="node1" class="node">
<title>Node1</title>
<g id="a_node1"><a xlink:title=" ">
<polygon fill="#999999" stroke="#666666" points="590,-129 474,-129 474,-110 590,-110 590,-129"/>
<text text-anchor="middle" x="532" y="-117" font-family="Helvetica,sans-Serif" font-size="10.00">include/sqlite3_client.h</text>
</a>
</g>
</g>
<!-- Node2 -->
<g id="node2" class="node">
<title>Node2</title>
<g id="a_node2"><a xlink:title=" ">
<polygon fill="#e0e0e0" stroke="#999999" points="118,-74 0,-74 0,-55 118,-55 118,-74"/>
<text text-anchor="middle" x="59" y="-62" font-family="Helvetica,sans-Serif" font-size="10.00">drogon/HttpController.h</text>
</a>
</g>
</g>
<!-- Node1&#45;&gt;Node2 -->
<g id="edge1" class="edge">
<title>Node1&#45;&gt;Node2</title>
<path fill="none" stroke="#63b8ff" d="M473.96,-112.4C397.29,-104.28 257.78,-89.28 128.42,-74.15"/>
<polygon fill="#63b8ff" stroke="#63b8ff" points="128.67,-70.66 118.33,-72.97 127.86,-77.61 128.67,-70.66"/>
</g>
<!-- Node3 -->
<g id="node3" class="node">
<title>Node3</title>
<g id="a_node3"><a xlink:title=" ">
<polygon fill="#e0e0e0" stroke="#999999" points="256,-74 136,-74 136,-55 256,-55 256,-74"/>
<text text-anchor="middle" x="196" y="-62" font-family="Helvetica,sans-Serif" font-size="10.00">drogon/HttpResponse.h</text>
</a>
</g>
</g>
<!-- Node1&#45;&gt;Node3 -->
<g id="edge2" class="edge">
<title>Node1&#45;&gt;Node3</title>
<path fill="none" stroke="#63b8ff" d="M478.02,-109.98C418.71,-100.63 323.51,-85.61 260.36,-75.65"/>
<polygon fill="#63b8ff" stroke="#63b8ff" points="260.55,-72.14 250.13,-74.04 259.46,-79.05 260.55,-72.14"/>
</g>
<!-- Node4 -->
<g id="node4" class="node">
<title>Node4</title>
<g id="a_node4"><a xlink:title=" ">
<polygon fill="#e0e0e0" stroke="#999999" points="376,-74 274,-74 274,-55 376,-55 376,-74"/>
<text text-anchor="middle" x="325" y="-62" font-family="Helvetica,sans-Serif" font-size="10.00">drogon/HttpTypes.h</text>
</a>
</g>
</g>
<!-- Node1&#45;&gt;Node4 -->
<g id="edge3" class="edge">
<title>Node1&#45;&gt;Node4</title>
<path fill="none" stroke="#63b8ff" d="M498.74,-109.98C463.39,-100.93 407.33,-86.58 368.49,-76.64"/>
<polygon fill="#63b8ff" stroke="#63b8ff" points="369.07,-73.17 358.52,-74.08 367.34,-79.95 369.07,-73.17"/>
</g>
<!-- Node5 -->
<g id="node5" class="node">
<title>Node5</title>
<g id="a_node5"><a xlink:title=" ">
<polygon fill="#e0e0e0" stroke="#999999" points="527.5,-74 394.5,-74 394.5,-55 527.5,-55 527.5,-74"/>
<text text-anchor="middle" x="461" y="-62" font-family="Helvetica,sans-Serif" font-size="10.00">drogon/drogon_callbacks.h</text>
</a>
</g>
</g>
<!-- Node1&#45;&gt;Node5 -->
<g id="edge4" class="edge">
<title>Node1&#45;&gt;Node5</title>
<path fill="none" stroke="#63b8ff" d="M520.59,-109.98C509.89,-102 493.66,-89.88 480.84,-80.31"/>
<polygon fill="#63b8ff" stroke="#63b8ff" points="482.72,-77.35 472.61,-74.17 478.53,-82.96 482.72,-77.35"/>
</g>
<!-- Node6 -->
<g id="node6" class="node">
<title>Node6</title>
<g id="a_node6"><a xlink:title=" ">
<polygon fill="#e0e0e0" stroke="#999999" points="660.5,-74 545.5,-74 545.5,-55 660.5,-55 660.5,-74"/>
<text text-anchor="middle" x="603" y="-62" font-family="Helvetica,sans-Serif" font-size="10.00">drogon/orm/DbClient.h</text>
</a>
</g>
</g>
<!-- Node1&#45;&gt;Node6 -->
<g id="edge5" class="edge">
<title>Node1&#45;&gt;Node6</title>
<path fill="none" stroke="#63b8ff" d="M543.41,-109.98C554.11,-102 570.34,-89.88 583.16,-80.31"/>
<polygon fill="#63b8ff" stroke="#63b8ff" points="585.47,-82.96 591.39,-74.17 581.28,-77.35 585.47,-82.96"/>
</g>
<!-- Node7 -->
<g id="node7" class="node">
<title>Node7</title>
<g id="a_node7"><a xlink:title=" ">
<polygon fill="#e0e0e0" stroke="#999999" points="737.5,-74 678.5,-74 678.5,-55 737.5,-55 737.5,-74"/>
<text text-anchor="middle" x="708" y="-62" font-family="Helvetica,sans-Serif" font-size="10.00">functional</text>
</a>
</g>
</g>
<!-- Node1&#45;&gt;Node7 -->
<g id="edge6" class="edge">
<title>Node1&#45;&gt;Node7</title>
<path fill="none" stroke="#63b8ff" d="M560.28,-109.98C589.95,-101.05 636.79,-86.94 669.75,-77.02"/>
<polygon fill="#63b8ff" stroke="#63b8ff" points="670.93,-80.32 679.5,-74.08 668.92,-73.61 670.93,-80.32"/>
</g>
<!-- Node8 -->
<g id="node8" class="node">
<title>Node8</title>
<g id="a_node8"><a xlink:title=" ">
<polygon fill="#e0e0e0" stroke="#999999" points="810,-74 756,-74 756,-55 810,-55 810,-74"/>
<text text-anchor="middle" x="783" y="-62" font-family="Helvetica,sans-Serif" font-size="10.00">iostream</text>
</a>
</g>
</g>
<!-- Node1&#45;&gt;Node8 -->
<g id="edge7" class="edge">
<title>Node1&#45;&gt;Node8</title>
<path fill="none" stroke="#63b8ff" d="M574.28,-109.98C617.49,-101.2 686.5,-87.02 746,-74 746.1,-73.98 746.2,-73.96 746.3,-73.93"/>
<polygon fill="#63b8ff" stroke="#63b8ff" points="746.94,-77.38 755.94,-71.79 745.41,-70.55 746.94,-77.38"/>
</g>
<!-- Node9 -->
<g id="node9" class="node">
<title>Node9</title>
<g id="a_node9"><a xlink:href="minpass__types_8h.html" target="_top" xlink:title=" ">
<polygon fill="white" stroke="#666666" points="919.5,-74 828.5,-74 828.5,-55 919.5,-55 919.5,-74"/>
<text text-anchor="middle" x="874" y="-62" font-family="Helvetica,sans-Serif" font-size="10.00">minpass_types.h</text>
</a>
</g>
</g>
<!-- Node1&#45;&gt;Node9 -->
<g id="edge8" class="edge">
<title>Node1&#45;&gt;Node9</title>
<path fill="none" stroke="#63b8ff" d="M586.95,-109.98C650.58,-100.12 754.79,-83.97 818.61,-74.08"/>
<polygon fill="#63b8ff" stroke="#63b8ff" points="819.14,-77.54 828.49,-72.55 818.07,-70.63 819.14,-77.54"/>
</g>
<!-- Node10 -->
<g id="node10" class="node">
<title>Node10</title>
<g id="a_node10"><a xlink:title=" ">
<polygon fill="#e0e0e0" stroke="#999999" points="835,-19 783,-19 783,0 835,0 835,-19"/>
<text text-anchor="middle" x="809" y="-7" font-family="Helvetica,sans-Serif" font-size="10.00">sstream</text>
</a>
</g>
</g>
<!-- Node9&#45;&gt;Node10 -->
<g id="edge9" class="edge">
<title>Node9&#45;&gt;Node10</title>
<path fill="none" stroke="#63b8ff" d="M863.56,-54.98C853.85,-47.07 839.18,-35.11 827.5,-25.58"/>
<polygon fill="#63b8ff" stroke="#63b8ff" points="829.6,-22.78 819.63,-19.17 825.17,-28.2 829.6,-22.78"/>
</g>
<!-- Node11 -->
<g id="node11" class="node">
<title>Node11</title>
<g id="a_node11"><a xlink:title=" ">
<polygon fill="#e0e0e0" stroke="#999999" points="894.5,-19 853.5,-19 853.5,0 894.5,0 894.5,-19"/>
<text text-anchor="middle" x="874" y="-7" font-family="Helvetica,sans-Serif" font-size="10.00">string</text>
</a>
</g>
</g>
<!-- Node9&#45;&gt;Node11 -->
<g id="edge10" class="edge">
<title>Node9&#45;&gt;Node11</title>
<path fill="none" stroke="#63b8ff" d="M874,-54.75C874,-47.8 874,-37.85 874,-29.13"/>
<polygon fill="#63b8ff" stroke="#63b8ff" points="877.5,-29.09 874,-19.09 870.5,-29.09 877.5,-29.09"/>
</g>
<!-- Node12 -->
<g id="node12" class="node">
<title>Node12</title>
<g id="a_node12"><a xlink:href="strong__types_8h.html" target="_top" xlink:title=" ">
<polygon fill="white" stroke="#666666" points="1027.5,-19 912.5,-19 912.5,0 1027.5,0 1027.5,-19"/>
<text text-anchor="middle" x="970" y="-7" font-family="Helvetica,sans-Serif" font-size="10.00">utilities/strong_types.h</text>
</a>
</g>
</g>
<!-- Node9&#45;&gt;Node12 -->
<g id="edge11" class="edge">
<title>Node9&#45;&gt;Node12</title>
<path fill="none" stroke="#63b8ff" d="M889.42,-54.98C904.45,-46.69 927.54,-33.94 945.16,-24.22"/>
<polygon fill="#63b8ff" stroke="#63b8ff" points="947.23,-27.07 954.3,-19.17 943.85,-20.94 947.23,-27.07"/>
</g>
</g>
</svg>
