<?xml version="1.0" encoding="UTF-8" standalone="no"?>
<!DOCTYPE svg PUBLIC "-//W3C//DTD SVG 1.1//EN"
 "http://www.w3.org/Graphics/SVG/1.1/DTD/svg11.dtd">
<!-- Generated by graphviz version 2.44.1 (20220725.1945)
 -->
<!-- Title: include/sqlite3_client.h Pages: 1 -->
<svg width="314pt" height="93pt"
 viewBox="0.00 0.00 314.00 93.00" xmlns="http://www.w3.org/2000/svg" xmlns:xlink="http://www.w3.org/1999/xlink">
<g id="graph0" class="graph" transform="scale(1 1) rotate(0) translate(4 89)">
<title>include/sqlite3_client.h</title>
<!-- Node1 -->
<g id="node1" class="node">
<title>Node1</title>
<g id="a_node1"><a xlink:title=" ">
<polygon fill="#999999" stroke="#666666" points="196,-85 80,-85 80,-66 196,-66 196,-85"/>
<text text-anchor="middle" x="138" y="-73" font-family="Helvetica,sans-Serif" font-size="10.00">include/sqlite3_client.h</text>
</a>
</g>
</g>
<!-- Node2 -->
<g id="node2" class="node">
<title>Node2</title>
<g id="a_node2"><a xlink:href="main_8cc.html" target="_top" xlink:title=" ">
<polygon fill="white" stroke="#666666" points="68,-24.5 0,-24.5 0,-5.5 68,-5.5 68,-24.5"/>
<text text-anchor="middle" x="34" y="-12.5" font-family="Helvetica,sans-Serif" font-size="10.00">src/main.cc</text>
</a>
</g>
</g>
<!-- Node1&#45;&gt;Node2 -->
<g id="edge1" class="edge">
<title>Node1&#45;&gt;Node2</title>
<path fill="none" stroke="#63b8ff" d="M113.86,-60.92C93.99,-49.74 66.41,-34.23 49.41,-24.67"/>
<polygon fill="#63b8ff" stroke="#63b8ff" points="112.22,-64.02 122.65,-65.87 115.65,-57.91 112.22,-64.02"/>
</g>
<!-- Node3 -->
<g id="node3" class="node">
<title>Node3</title>
<g id="a_node3"><a xlink:href="sqlite3__client_8cc.html" target="_top" xlink:title=" ">
<polygon fill="white" stroke="#666666" points="190,-24.5 86,-24.5 86,-5.5 190,-5.5 190,-24.5"/>
<text text-anchor="middle" x="138" y="-12.5" font-family="Helvetica,sans-Serif" font-size="10.00">src/sqlite3_client.cc</text>
</a>
</g>
</g>
<!-- Node1&#45;&gt;Node3 -->
<g id="edge2" class="edge">
<title>Node1&#45;&gt;Node3</title>
<path fill="none" stroke="#63b8ff" d="M138,-55.66C138,-45.24 138,-32.8 138,-24.67"/>
<polygon fill="#63b8ff" stroke="#63b8ff" points="134.5,-55.87 138,-65.87 141.5,-55.87 134.5,-55.87"/>
</g>
<!-- Node4 -->
<g id="node4" class="node">
<title>Node4</title>
<g id="a_node4"><a xlink:href="sqlite3__client__test_8cc.html" target="_top" xlink:title=" ">
<polygon fill="white" stroke="#666666" points="306,-30 208,-30 208,0 306,0 306,-30"/>
<text text-anchor="start" x="216" y="-18" font-family="Helvetica,sans-Serif" font-size="10.00">tests/sqlite3_client</text>
<text text-anchor="middle" x="257" y="-7" font-family="Helvetica,sans-Serif" font-size="10.00">_test.cc</text>
</a>
</g>
</g>
<!-- Node1&#45;&gt;Node4 -->
<g id="edge3" class="edge">
<title>Node1&#45;&gt;Node4</title>
<path fill="none" stroke="#63b8ff" d="M164.52,-61.46C183.41,-52.18 208.77,-39.71 228.16,-30.18"/>
<polygon fill="#63b8ff" stroke="#63b8ff" points="162.73,-58.44 155.3,-65.99 165.82,-64.72 162.73,-58.44"/>
</g>
</g>
</svg>
