<?xml version="1.0" encoding="UTF-8" standalone="no"?>
<!DOCTYPE svg PUBLIC "-//W3C//DTD SVG 1.1//EN"
 "http://www.w3.org/Graphics/SVG/1.1/DTD/svg11.dtd">
<!-- Generated by graphviz version 2.44.1 (20220725.1945)
 -->
<!-- Title: src/sqlite3_client.cc Pages: 1 -->
<svg width="1035pt" height="192pt"
 viewBox="0.00 0.00 1035.00 192.00" xmlns="http://www.w3.org/2000/svg" xmlns:xlink="http://www.w3.org/1999/xlink">
<g id="graph0" class="graph" transform="scale(1 1) rotate(0) translate(4 188)">
<title>src/sqlite3_client.cc</title>
<!-- Node1 -->
<g id="node1" class="node">
<title>Node1</title>
<g id="a_node1"><a xlink:title=" ">
<polygon fill="#999999" stroke="#666666" points="797.5,-184 693.5,-184 693.5,-165 797.5,-165 797.5,-184"/>
<text text-anchor="middle" x="745.5" y="-172" font-family="Helvetica,sans-Serif" font-size="10.00">src/sqlite3_client.cc</text>
</a>
</g>
</g>
<!-- Node2 -->
<g id="node2" class="node">
<title>Node2</title>
<g id="a_node2"><a xlink:href="sqlite3__client_8h.html" target="_top" xlink:title=" ">
<polygon fill="white" stroke="#666666" points="519.5,-129 437.5,-129 437.5,-110 519.5,-110 519.5,-129"/>
<text text-anchor="middle" x="478.5" y="-117" font-family="Helvetica,sans-Serif" font-size="10.00">sqlite3_client.h</text>
</a>
</g>
</g>
<!-- Node1&#45;&gt;Node2 -->
<g id="edge1" class="edge">
<title>Node1&#45;&gt;Node2</title>
<path fill="none" stroke="#63b8ff" d="M702.6,-164.98C655.44,-155.62 579.7,-140.59 529.53,-130.63"/>
<polygon fill="#63b8ff" stroke="#63b8ff" points="530.03,-127.16 519.54,-128.65 528.67,-134.03 530.03,-127.16"/>
</g>
<!-- Node14 -->
<g id="node14" class="node">
<title>Node14</title>
<g id="a_node14"><a xlink:title=" ">
<polygon fill="#e0e0e0" stroke="#999999" points="692.5,-129 550.5,-129 550.5,-110 692.5,-110 692.5,-129"/>
<text text-anchor="middle" x="621.5" y="-117" font-family="Helvetica,sans-Serif" font-size="10.00">drogon/HttpAppFramework.h</text>
</a>
</g>
</g>
<!-- Node1&#45;&gt;Node14 -->
<g id="edge13" class="edge">
<title>Node1&#45;&gt;Node14</title>
<path fill="none" stroke="#63b8ff" d="M725.58,-164.98C705.45,-156.38 674.12,-142.99 651.09,-133.15"/>
<polygon fill="#63b8ff" stroke="#63b8ff" points="652.36,-129.88 641.79,-129.17 649.6,-136.32 652.36,-129.88"/>
</g>
<!-- Node15 -->
<g id="node15" class="node">
<title>Node15</title>
<g id="a_node15"><a xlink:title=" ">
<polygon fill="#e0e0e0" stroke="#999999" points="780,-129 711,-129 711,-110 780,-110 780,-129"/>
<text text-anchor="middle" x="745.5" y="-117" font-family="Helvetica,sans-Serif" font-size="10.00">json/value.h</text>
</a>
</g>
</g>
<!-- Node1&#45;&gt;Node15 -->
<g id="edge14" class="edge">
<title>Node1&#45;&gt;Node15</title>
<path fill="none" stroke="#63b8ff" d="M745.5,-164.75C745.5,-157.8 745.5,-147.85 745.5,-139.13"/>
<polygon fill="#63b8ff" stroke="#63b8ff" points="749,-139.09 745.5,-129.09 742,-139.09 749,-139.09"/>
</g>
<!-- Node16 -->
<g id="node16" class="node">
<title>Node16</title>
<g id="a_node16"><a xlink:title=" ">
<polygon fill="#e0e0e0" stroke="#999999" points="975.5,-74 937.5,-74 937.5,-55 975.5,-55 975.5,-74"/>
<text text-anchor="middle" x="956.5" y="-62" font-family="Helvetica,sans-Serif" font-size="10.00">tuple</text>
</a>
</g>
</g>
<!-- Node1&#45;&gt;Node16 -->
<g id="edge15" class="edge">
<title>Node1&#45;&gt;Node16</title>
<path fill="none" stroke="#63b8ff" d="M797.63,-171.68C836.04,-167.88 887.62,-157.32 923.5,-129 937.8,-117.71 946.54,-98.52 951.41,-84.19"/>
<polygon fill="#63b8ff" stroke="#63b8ff" points="954.83,-84.97 954.4,-74.38 948.13,-82.93 954.83,-84.97"/>
</g>
<!-- Node17 -->
<g id="node17" class="node">
<title>Node17</title>
<g id="a_node17"><a xlink:href="helpers_8h.html" target="_top" xlink:title=" ">
<polygon fill="white" stroke="#666666" points="914.5,-129 798.5,-129 798.5,-110 914.5,-110 914.5,-129"/>
<text text-anchor="middle" x="856.5" y="-117" font-family="Helvetica,sans-Serif" font-size="10.00">sqlite3_client/helpers.h</text>
</a>
</g>
</g>
<!-- Node1&#45;&gt;Node17 -->
<g id="edge16" class="edge">
<title>Node1&#45;&gt;Node17</title>
<path fill="none" stroke="#63b8ff" d="M763.33,-164.98C781.11,-156.5 808.65,-143.35 829.18,-133.54"/>
<polygon fill="#63b8ff" stroke="#63b8ff" points="830.83,-136.64 838.34,-129.17 827.81,-130.32 830.83,-136.64"/>
</g>
<!-- Node3 -->
<g id="node3" class="node">
<title>Node3</title>
<g id="a_node3"><a xlink:title=" ">
<polygon fill="#e0e0e0" stroke="#999999" points="400.5,-74 282.5,-74 282.5,-55 400.5,-55 400.5,-74"/>
<text text-anchor="middle" x="341.5" y="-62" font-family="Helvetica,sans-Serif" font-size="10.00">drogon/HttpController.h</text>
</a>
</g>
</g>
<!-- Node2&#45;&gt;Node3 -->
<g id="edge2" class="edge">
<title>Node2&#45;&gt;Node3</title>
<path fill="none" stroke="#63b8ff" d="M456.49,-109.98C434.05,-101.3 399.02,-87.75 373.51,-77.88"/>
<polygon fill="#63b8ff" stroke="#63b8ff" points="374.5,-74.51 363.91,-74.17 371.98,-81.04 374.5,-74.51"/>
</g>
<!-- Node4 -->
<g id="node4" class="node">
<title>Node4</title>
<g id="a_node4"><a xlink:title=" ">
<polygon fill="#e0e0e0" stroke="#999999" points="538.5,-74 418.5,-74 418.5,-55 538.5,-55 538.5,-74"/>
<text text-anchor="middle" x="478.5" y="-62" font-family="Helvetica,sans-Serif" font-size="10.00">drogon/HttpResponse.h</text>
</a>
</g>
</g>
<!-- Node2&#45;&gt;Node4 -->
<g id="edge3" class="edge">
<title>Node2&#45;&gt;Node4</title>
<path fill="none" stroke="#63b8ff" d="M478.5,-109.75C478.5,-102.8 478.5,-92.85 478.5,-84.13"/>
<polygon fill="#63b8ff" stroke="#63b8ff" points="482,-84.09 478.5,-74.09 475,-84.09 482,-84.09"/>
</g>
<!-- Node5 -->
<g id="node5" class="node">
<title>Node5</title>
<g id="a_node5"><a xlink:title=" ">
<polygon fill="#e0e0e0" stroke="#999999" points="658.5,-74 556.5,-74 556.5,-55 658.5,-55 658.5,-74"/>
<text text-anchor="middle" x="607.5" y="-62" font-family="Helvetica,sans-Serif" font-size="10.00">drogon/HttpTypes.h</text>
</a>
</g>
</g>
<!-- Node2&#45;&gt;Node5 -->
<g id="edge4" class="edge">
<title>Node2&#45;&gt;Node5</title>
<path fill="none" stroke="#63b8ff" d="M499.23,-109.98C520.26,-101.34 553.05,-87.87 577.04,-78.02"/>
<polygon fill="#63b8ff" stroke="#63b8ff" points="578.48,-81.21 586.4,-74.17 575.82,-74.73 578.48,-81.21"/>
</g>
<!-- Node6 -->
<g id="node6" class="node">
<title>Node6</title>
<g id="a_node6"><a xlink:title=" ">
<polygon fill="#e0e0e0" stroke="#999999" points="810,-74 677,-74 677,-55 810,-55 810,-74"/>
<text text-anchor="middle" x="743.5" y="-62" font-family="Helvetica,sans-Serif" font-size="10.00">drogon/drogon_callbacks.h</text>
</a>
</g>
</g>
<!-- Node2&#45;&gt;Node6 -->
<g id="edge5" class="edge">
<title>Node2&#45;&gt;Node6</title>
<path fill="none" stroke="#63b8ff" d="M519.62,-110.28C565.72,-101.06 640.61,-86.08 690.94,-76.01"/>
<polygon fill="#63b8ff" stroke="#63b8ff" points="691.85,-79.4 700.97,-74.01 690.48,-72.54 691.85,-79.4"/>
</g>
<!-- Node7 -->
<g id="node7" class="node">
<title>Node7</title>
<g id="a_node7"><a xlink:title=" ">
<polygon fill="#e0e0e0" stroke="#999999" points="115,-74 0,-74 0,-55 115,-55 115,-74"/>
<text text-anchor="middle" x="57.5" y="-62" font-family="Helvetica,sans-Serif" font-size="10.00">drogon/orm/DbClient.h</text>
</a>
</g>
</g>
<!-- Node2&#45;&gt;Node7 -->
<g id="edge6" class="edge">
<title>Node2&#45;&gt;Node7</title>
<path fill="none" stroke="#63b8ff" d="M437.5,-113.41C373.2,-105.41 244.48,-89.36 125.13,-74.2"/>
<polygon fill="#63b8ff" stroke="#63b8ff" points="125.45,-70.72 115.09,-72.93 124.57,-77.66 125.45,-70.72"/>
</g>
<!-- Node8 -->
<g id="node8" class="node">
<title>Node8</title>
<g id="a_node8"><a xlink:title=" ">
<polygon fill="#e0e0e0" stroke="#999999" points="192,-74 133,-74 133,-55 192,-55 192,-74"/>
<text text-anchor="middle" x="162.5" y="-62" font-family="Helvetica,sans-Serif" font-size="10.00">functional</text>
</a>
</g>
</g>
<!-- Node2&#45;&gt;Node8 -->
<g id="edge7" class="edge">
<title>Node2&#45;&gt;Node8</title>
<path fill="none" stroke="#63b8ff" d="M437.08,-112.58C384.77,-104.93 291.8,-90.82 202.32,-74.06"/>
<polygon fill="#63b8ff" stroke="#63b8ff" points="202.75,-70.58 192.28,-72.17 201.45,-77.46 202.75,-70.58"/>
</g>
<!-- Node9 -->
<g id="node9" class="node">
<title>Node9</title>
<g id="a_node9"><a xlink:title=" ">
<polygon fill="#e0e0e0" stroke="#999999" points="264.5,-74 210.5,-74 210.5,-55 264.5,-55 264.5,-74"/>
<text text-anchor="middle" x="237.5" y="-62" font-family="Helvetica,sans-Serif" font-size="10.00">iostream</text>
</a>
</g>
</g>
<!-- Node2&#45;&gt;Node9 -->
<g id="edge8" class="edge">
<title>Node2&#45;&gt;Node9</title>
<path fill="none" stroke="#63b8ff" d="M438,-109.93C398.71,-101.58 337.16,-88.35 274.65,-74.23"/>
<polygon fill="#63b8ff" stroke="#63b8ff" points="275.14,-70.75 264.61,-71.96 273.59,-77.58 275.14,-70.75"/>
</g>
<!-- Node10 -->
<g id="node10" class="node">
<title>Node10</title>
<g id="a_node10"><a xlink:href="minpass__types_8h.html" target="_top" xlink:title=" ">
<polygon fill="white" stroke="#666666" points="919,-74 828,-74 828,-55 919,-55 919,-74"/>
<text text-anchor="middle" x="873.5" y="-62" font-family="Helvetica,sans-Serif" font-size="10.00">minpass_types.h</text>
</a>
</g>
</g>
<!-- Node2&#45;&gt;Node10 -->
<g id="edge9" class="edge">
<title>Node2&#45;&gt;Node10</title>
<path fill="none" stroke="#63b8ff" d="M519.5,-112.94C526.83,-111.95 534.39,-110.94 541.5,-110 661.33,-94.13 693.89,-91.61 817.64,-74.09"/>
<polygon fill="#63b8ff" stroke="#63b8ff" points="818.49,-77.51 827.89,-72.63 817.5,-70.58 818.49,-77.51"/>
</g>
<!-- Node11 -->
<g id="node11" class="node">
<title>Node11</title>
<g id="a_node11"><a xlink:title=" ">
<polygon fill="#e0e0e0" stroke="#999999" points="834.5,-19 782.5,-19 782.5,0 834.5,0 834.5,-19"/>
<text text-anchor="middle" x="808.5" y="-7" font-family="Helvetica,sans-Serif" font-size="10.00">sstream</text>
</a>
</g>
</g>
<!-- Node10&#45;&gt;Node11 -->
<g id="edge10" class="edge">
<title>Node10&#45;&gt;Node11</title>
<path fill="none" stroke="#63b8ff" d="M863.06,-54.98C853.35,-47.07 838.68,-35.11 827,-25.58"/>
<polygon fill="#63b8ff" stroke="#63b8ff" points="829.1,-22.78 819.13,-19.17 824.67,-28.2 829.1,-22.78"/>
</g>
<!-- Node12 -->
<g id="node12" class="node">
<title>Node12</title>
<g id="a_node12"><a xlink:title=" ">
<polygon fill="#e0e0e0" stroke="#999999" points="894,-19 853,-19 853,0 894,0 894,-19"/>
<text text-anchor="middle" x="873.5" y="-7" font-family="Helvetica,sans-Serif" font-size="10.00">string</text>
</a>
</g>
</g>
<!-- Node10&#45;&gt;Node12 -->
<g id="edge11" class="edge">
<title>Node10&#45;&gt;Node12</title>
<path fill="none" stroke="#63b8ff" d="M873.5,-54.75C873.5,-47.8 873.5,-37.85 873.5,-29.13"/>
<polygon fill="#63b8ff" stroke="#63b8ff" points="877,-29.09 873.5,-19.09 870,-29.09 877,-29.09"/>
</g>
<!-- Node13 -->
<g id="node13" class="node">
<title>Node13</title>
<g id="a_node13"><a xlink:href="strong__types_8h.html" target="_top" xlink:title=" ">
<polygon fill="white" stroke="#666666" points="1027,-19 912,-19 912,0 1027,0 1027,-19"/>
<text text-anchor="middle" x="969.5" y="-7" font-family="Helvetica,sans-Serif" font-size="10.00">utilities/strong_types.h</text>
</a>
</g>
</g>
<!-- Node10&#45;&gt;Node13 -->
<g id="edge12" class="edge">
<title>Node10&#45;&gt;Node13</title>
<path fill="none" stroke="#63b8ff" d="M888.92,-54.98C903.95,-46.69 927.04,-33.94 944.66,-24.22"/>
<polygon fill="#63b8ff" stroke="#63b8ff" points="946.73,-27.07 953.8,-19.17 943.35,-20.94 946.73,-27.07"/>
</g>
<!-- Node17&#45;&gt;Node5 -->
<g id="edge17" class="edge">
<title>Node17&#45;&gt;Node5</title>
<path fill="none" stroke="#63b8ff" d="M816.49,-109.98C773.33,-100.8 704.52,-86.15 657.74,-76.19"/>
<polygon fill="#63b8ff" stroke="#63b8ff" points="658.33,-72.74 647.82,-74.08 656.87,-79.59 658.33,-72.74"/>
</g>
<!-- Node17&#45;&gt;Node6 -->
<g id="edge18" class="edge">
<title>Node17&#45;&gt;Node6</title>
<path fill="none" stroke="#63b8ff" d="M838.34,-109.98C820.25,-101.5 792.22,-88.35 771.31,-78.54"/>
<polygon fill="#63b8ff" stroke="#63b8ff" points="772.53,-75.25 761.99,-74.17 769.55,-81.59 772.53,-75.25"/>
</g>
<!-- Node17&#45;&gt;Node10 -->
<g id="edge20" class="edge">
<title>Node17&#45;&gt;Node10</title>
<path fill="none" stroke="#63b8ff" d="M859.31,-109.75C861.56,-102.72 864.8,-92.62 867.62,-83.84"/>
<polygon fill="#63b8ff" stroke="#63b8ff" points="871.02,-84.68 870.75,-74.09 864.36,-82.54 871.02,-84.68"/>
</g>
<!-- Node17&#45;&gt;Node16 -->
<g id="edge19" class="edge">
<title>Node17&#45;&gt;Node16</title>
<path fill="none" stroke="#63b8ff" d="M872.57,-109.98C888.36,-101.61 912.72,-88.7 931.13,-78.95"/>
<polygon fill="#63b8ff" stroke="#63b8ff" points="932.94,-81.95 940.14,-74.17 929.67,-75.76 932.94,-81.95"/>
</g>
</g>
</svg>
