<?xml version="1.0" encoding="UTF-8" standalone="no"?>
<!DOCTYPE svg PUBLIC "-//W3C//DTD SVG 1.1//EN"
 "http://www.w3.org/Graphics/SVG/1.1/DTD/svg11.dtd">
<!-- Generated by graphviz version 2.44.1 (20220725.1945)
 -->
<!-- Title: include/utilities/strong_types.h Pages: 1 -->
<svg width="566pt" height="236pt"
 viewBox="0.00 0.00 566.00 236.00" xmlns="http://www.w3.org/2000/svg" xmlns:xlink="http://www.w3.org/1999/xlink">
<g id="graph0" class="graph" transform="scale(1 1) rotate(0) translate(4 232)">
<title>include/utilities/strong_types.h</title>
<!-- Node1 -->
<g id="node1" class="node">
<title>Node1</title>
<g id="a_node1"><a xlink:title=" ">
<polygon fill="#999999" stroke="#666666" points="444.5,-228 333.5,-228 333.5,-198 444.5,-198 444.5,-228"/>
<text text-anchor="start" x="341.5" y="-216" font-family="Helvetica,sans-Serif" font-size="10.00">include/utilities/strong</text>
<text text-anchor="middle" x="389" y="-205" font-family="Helvetica,sans-Serif" font-size="10.00">_types.h</text>
</a>
</g>
</g>
<!-- Node2 -->
<g id="node2" class="node">
<title>Node2</title>
<g id="a_node2"><a xlink:href="minpass__types_8h.html" target="_top" xlink:title=" ">
<polygon fill="white" stroke="#666666" points="314.5,-156.5 189.5,-156.5 189.5,-137.5 314.5,-137.5 314.5,-156.5"/>
<text text-anchor="middle" x="252" y="-144.5" font-family="Helvetica,sans-Serif" font-size="10.00">include/minpass_types.h</text>
</a>
</g>
</g>
<!-- Node1&#45;&gt;Node2 -->
<g id="edge1" class="edge">
<title>Node1&#45;&gt;Node2</title>
<path fill="none" stroke="#63b8ff" d="M349.66,-193.62C323.51,-181.41 290.4,-165.94 270.23,-156.52"/>
<polygon fill="#63b8ff" stroke="#63b8ff" points="348.39,-196.89 358.93,-197.95 351.36,-190.55 348.39,-196.89"/>
</g>
<!-- Node10 -->
<g id="node10" class="node">
<title>Node10</title>
<g id="a_node10"><a xlink:href="minpass__types_8cc.html" target="_top" xlink:title=" ">
<polygon fill="white" stroke="#666666" points="445.5,-156.5 332.5,-156.5 332.5,-137.5 445.5,-137.5 445.5,-156.5"/>
<text text-anchor="middle" x="389" y="-144.5" font-family="Helvetica,sans-Serif" font-size="10.00">src/minpass_types.cc</text>
</a>
</g>
</g>
<!-- Node1&#45;&gt;Node10 -->
<g id="edge10" class="edge">
<title>Node1&#45;&gt;Node10</title>
<path fill="none" stroke="#63b8ff" d="M389,-187.6C389,-176.8 389,-164.78 389,-156.84"/>
<polygon fill="#63b8ff" stroke="#63b8ff" points="385.5,-187.8 389,-197.8 392.5,-187.8 385.5,-187.8"/>
</g>
<!-- Node11 -->
<g id="node11" class="node">
<title>Node11</title>
<g id="a_node11"><a xlink:href="strong__types_8cc.html" target="_top" xlink:title=" ">
<polygon fill="white" stroke="#666666" points="558,-162 464,-162 464,-132 558,-132 558,-162"/>
<text text-anchor="start" x="472" y="-150" font-family="Helvetica,sans-Serif" font-size="10.00">src/utilities/strong</text>
<text text-anchor="middle" x="511" y="-139" font-family="Helvetica,sans-Serif" font-size="10.00">_types.cc</text>
</a>
</g>
</g>
<!-- Node1&#45;&gt;Node11 -->
<g id="edge11" class="edge">
<title>Node1&#45;&gt;Node11</title>
<path fill="none" stroke="#63b8ff" d="M424.76,-193.24C443.8,-183.25 466.82,-171.18 484.29,-162.01"/>
<polygon fill="#63b8ff" stroke="#63b8ff" points="423,-190.21 415.77,-197.95 426.25,-196.41 423,-190.21"/>
</g>
<!-- Node3 -->
<g id="node3" class="node">
<title>Node3</title>
<g id="a_node3"><a xlink:href="sqlite3__client_8h.html" target="_top" xlink:title=" ">
<polygon fill="white" stroke="#666666" points="245,-90.5 129,-90.5 129,-71.5 245,-71.5 245,-90.5"/>
<text text-anchor="middle" x="187" y="-78.5" font-family="Helvetica,sans-Serif" font-size="10.00">include/sqlite3_client.h</text>
</a>
</g>
</g>
<!-- Node2&#45;&gt;Node3 -->
<g id="edge2" class="edge">
<title>Node2&#45;&gt;Node3</title>
<path fill="none" stroke="#63b8ff" d="M236.08,-130.33C223.5,-117.94 206.38,-101.09 196.04,-90.91"/>
<polygon fill="#63b8ff" stroke="#63b8ff" points="233.65,-132.85 243.23,-137.37 238.56,-127.86 233.65,-132.85"/>
</g>
<!-- Node7 -->
<g id="node7" class="node">
<title>Node7</title>
<g id="a_node7"><a xlink:href="helpers_8h.html" target="_top" xlink:title=" ">
<polygon fill="white" stroke="#666666" points="396.5,-96 289.5,-96 289.5,-66 396.5,-66 396.5,-96"/>
<text text-anchor="start" x="297.5" y="-84" font-family="Helvetica,sans-Serif" font-size="10.00">include/sqlite3_client</text>
<text text-anchor="middle" x="343" y="-73" font-family="Helvetica,sans-Serif" font-size="10.00">/helpers.h</text>
</a>
</g>
</g>
<!-- Node2&#45;&gt;Node7 -->
<g id="edge6" class="edge">
<title>Node2&#45;&gt;Node7</title>
<path fill="none" stroke="#63b8ff" d="M272.45,-131.62C287.53,-121.01 307.94,-106.66 322.93,-96.12"/>
<polygon fill="#63b8ff" stroke="#63b8ff" points="270.44,-128.75 264.27,-137.37 274.47,-134.48 270.44,-128.75"/>
</g>
<!-- Node4 -->
<g id="node4" class="node">
<title>Node4</title>
<g id="a_node4"><a xlink:href="main_8cc.html" target="_top" xlink:title=" ">
<polygon fill="white" stroke="#666666" points="68,-24.5 0,-24.5 0,-5.5 68,-5.5 68,-24.5"/>
<text text-anchor="middle" x="34" y="-12.5" font-family="Helvetica,sans-Serif" font-size="10.00">src/main.cc</text>
</a>
</g>
</g>
<!-- Node3&#45;&gt;Node4 -->
<g id="edge3" class="edge">
<title>Node3&#45;&gt;Node4</title>
<path fill="none" stroke="#63b8ff" d="M156.78,-67.36C126.63,-54.75 81.11,-35.71 54.8,-24.7"/>
<polygon fill="#63b8ff" stroke="#63b8ff" points="155.79,-70.74 166.37,-71.37 158.49,-64.28 155.79,-70.74"/>
</g>
<!-- Node5 -->
<g id="node5" class="node">
<title>Node5</title>
<g id="a_node5"><a xlink:href="sqlite3__client_8cc.html" target="_top" xlink:title=" ">
<polygon fill="white" stroke="#666666" points="306,-24.5 202,-24.5 202,-5.5 306,-5.5 306,-24.5"/>
<text text-anchor="middle" x="254" y="-12.5" font-family="Helvetica,sans-Serif" font-size="10.00">src/sqlite3_client.cc</text>
</a>
</g>
</g>
<!-- Node3&#45;&gt;Node5 -->
<g id="edge4" class="edge">
<title>Node3&#45;&gt;Node5</title>
<path fill="none" stroke="#63b8ff" d="M203.4,-64.33C216.38,-51.94 234.02,-35.09 244.68,-24.91"/>
<polygon fill="#63b8ff" stroke="#63b8ff" points="200.85,-61.93 196.04,-71.37 205.68,-66.99 200.85,-61.93"/>
</g>
<!-- Node6 -->
<g id="node6" class="node">
<title>Node6</title>
<g id="a_node6"><a xlink:href="sqlite3__client__test_8cc.html" target="_top" xlink:title=" ">
<polygon fill="white" stroke="#666666" points="184,-30 86,-30 86,0 184,0 184,-30"/>
<text text-anchor="start" x="94" y="-18" font-family="Helvetica,sans-Serif" font-size="10.00">tests/sqlite3_client</text>
<text text-anchor="middle" x="135" y="-7" font-family="Helvetica,sans-Serif" font-size="10.00">_test.cc</text>
</a>
</g>
</g>
<!-- Node3&#45;&gt;Node6 -->
<g id="edge5" class="edge">
<title>Node3&#45;&gt;Node6</title>
<path fill="none" stroke="#63b8ff" d="M173.63,-63.54C165.29,-53.28 154.66,-40.2 146.67,-30.36"/>
<polygon fill="#63b8ff" stroke="#63b8ff" points="170.96,-65.81 179.99,-71.37 176.4,-61.4 170.96,-65.81"/>
</g>
<!-- Node7&#45;&gt;Node5 -->
<g id="edge7" class="edge">
<title>Node7&#45;&gt;Node5</title>
<path fill="none" stroke="#63b8ff" d="M315.01,-59.87C298.54,-48.03 278.54,-33.65 266.04,-24.66"/>
<polygon fill="#63b8ff" stroke="#63b8ff" points="313.09,-62.8 323.25,-65.8 317.17,-57.12 313.09,-62.8"/>
</g>
<!-- Node8 -->
<g id="node8" class="node">
<title>Node8</title>
<g id="a_node8"><a xlink:href="helpers_8cc.html" target="_top" xlink:title=" ">
<polygon fill="white" stroke="#666666" points="414,-30 324,-30 324,0 414,0 414,-30"/>
<text text-anchor="start" x="332" y="-18" font-family="Helvetica,sans-Serif" font-size="10.00">src/sqlite3_client</text>
<text text-anchor="middle" x="369" y="-7" font-family="Helvetica,sans-Serif" font-size="10.00">/helpers.cc</text>
</a>
</g>
</g>
<!-- Node7&#45;&gt;Node8 -->
<g id="edge8" class="edge">
<title>Node7&#45;&gt;Node8</title>
<path fill="none" stroke="#63b8ff" d="M352.59,-56.39C356.17,-47.59 360.12,-37.86 363.25,-30.16"/>
<polygon fill="#63b8ff" stroke="#63b8ff" points="349.29,-55.21 348.77,-65.8 355.78,-57.85 349.29,-55.21"/>
</g>
<!-- Node9 -->
<g id="node9" class="node">
<title>Node9</title>
<g id="a_node9"><a xlink:href="helpers__test_8cc.html" target="_top" xlink:title=" ">
<polygon fill="white" stroke="#666666" points="530,-30 432,-30 432,0 530,0 530,-30"/>
<text text-anchor="start" x="440" y="-18" font-family="Helvetica,sans-Serif" font-size="10.00">tests/sqlite3_client</text>
<text text-anchor="middle" x="481" y="-7" font-family="Helvetica,sans-Serif" font-size="10.00">/helpers_test.cc</text>
</a>
</g>
</g>
<!-- Node7&#45;&gt;Node9 -->
<g id="edge9" class="edge">
<title>Node7&#45;&gt;Node9</title>
<path fill="none" stroke="#63b8ff" d="M382.57,-61.65C404.27,-51.58 430.76,-39.3 450.79,-30.01"/>
<polygon fill="#63b8ff" stroke="#63b8ff" points="380.88,-58.57 373.28,-65.95 383.83,-64.92 380.88,-58.57"/>
</g>
</g>
</svg>
